<svg width="505" height="426" viewBox="0 0 505 426" fill="none" xmlns="http://www.w3.org/2000/svg">
<path opacity="0.75" d="M504.142 0H0.404297V400.76C0.404297 400.93 0.404297 401.1 0.404297 401.27C0.404297 414.93 9.51956 426 20.7737 426C23.3613 425.958 25.9109 425.37 28.2564 424.276C30.6019 423.182 32.6907 421.606 34.3866 419.65C36.0556 421.639 38.1395 423.238 40.4921 424.336C42.8447 425.433 45.4089 426.001 48.0045 426.001C50.6002 426.001 53.1644 425.433 55.517 424.336C57.8696 423.238 59.9535 421.639 61.6224 419.65C63.2914 421.639 65.3753 423.238 67.7279 424.336C70.0805 425.433 72.6447 426.001 75.2403 426.001C77.836 426.001 80.4002 425.433 82.7528 424.336C85.1054 423.238 87.1893 421.639 88.8583 419.65C90.5272 421.639 92.6111 423.238 94.9637 424.336C97.3163 425.433 99.8805 426.001 102.476 426.001C105.072 426.001 107.636 425.433 109.989 424.336C112.341 423.238 114.425 421.639 116.094 419.65C117.763 421.639 119.847 423.238 122.2 424.336C124.552 425.433 127.116 426.001 129.712 426.001C132.308 426.001 134.872 425.433 137.224 424.336C139.577 423.238 141.661 421.639 143.33 419.65C144.999 421.639 147.083 423.238 149.435 424.336C151.788 425.433 154.352 426.001 156.948 426.001C159.543 426.001 162.108 425.433 164.46 424.336C166.813 423.238 168.897 421.639 170.566 419.65C172.235 421.639 174.319 423.238 176.671 424.336C179.024 425.433 181.588 426.001 184.184 426.001C186.779 426.001 189.343 425.433 191.696 424.336C194.049 423.238 196.133 421.639 197.802 419.65C199.47 421.639 201.554 423.238 203.907 424.336C206.26 425.433 208.824 426.001 211.419 426.001C214.015 426.001 216.579 425.433 218.932 424.336C221.284 423.238 223.368 421.639 225.037 419.65C226.706 421.639 228.79 423.238 231.143 424.336C233.495 425.433 236.06 426.001 238.655 426.001C241.251 426.001 243.815 425.433 246.168 424.336C248.52 423.238 250.604 421.639 252.273 419.65C253.942 421.639 256.026 423.238 258.379 424.336C260.731 425.433 263.295 426.001 265.891 426.001C268.487 426.001 271.051 425.433 273.404 424.336C275.756 423.238 277.84 421.639 279.509 419.65C281.178 421.639 283.262 423.238 285.614 424.336C287.967 425.433 290.531 426.001 293.127 426.001C295.723 426.001 298.287 425.433 300.639 424.336C302.992 423.238 305.076 421.639 306.745 419.65C308.414 421.639 310.498 423.238 312.85 424.336C315.203 425.433 317.767 426.001 320.363 426.001C322.958 426.001 325.523 425.433 327.875 424.336C330.228 423.238 332.312 421.639 333.981 419.65C335.65 421.639 337.734 423.238 340.086 424.336C342.439 425.433 345.003 426.001 347.599 426.001C350.194 426.001 352.758 425.433 355.111 424.336C357.464 423.238 359.548 421.639 361.216 419.65C362.885 421.639 364.969 423.238 367.322 424.336C369.675 425.433 372.239 426.001 374.834 426.001C377.43 426.001 379.994 425.433 382.347 424.336C384.699 423.238 386.783 421.639 388.452 419.65C390.121 421.639 392.205 423.238 394.558 424.336C396.91 425.433 399.475 426.001 402.07 426.001C404.666 426.001 407.23 425.433 409.583 424.336C411.935 423.238 414.019 421.639 415.688 419.65C417.357 421.639 419.441 423.238 421.794 424.336C424.146 425.433 426.71 426.001 429.306 426.001C431.902 426.001 434.466 425.433 436.818 424.336C439.171 423.238 441.255 421.639 442.924 419.65C444.593 421.639 446.677 423.238 449.029 424.336C451.382 425.433 453.946 426.001 456.542 426.001C459.137 426.001 461.702 425.433 464.054 424.336C466.407 423.238 468.491 421.639 470.16 419.65C471.856 421.606 473.944 423.182 476.29 424.276C478.636 425.37 481.185 425.958 483.773 426C495.027 426 504.142 414.93 504.142 401.27C504.142 401.1 504.142 400.93 504.142 400.76V0Z" fill="white"/>
</svg>
