<svg width="39" height="36" viewBox="0 0 39 36" fill="none" xmlns="http://www.w3.org/2000/svg">
<path d="M33.7213 6.77098L5.38669 6.69189L5.38094 8.75195L33.7156 8.83103L33.7213 6.77098Z" fill="#57B873"/>
<path d="M33.7042 12.9509L5.36959 12.8718L5.36384 14.9318L33.6985 15.0108L33.7042 12.9509Z" fill="#57B873"/>
<path d="M33.6869 19.1308L5.35225 19.0518L5.3465 21.1117L33.6811 21.1908L33.6869 19.1308Z" fill="#57B873"/>
<path d="M14.8275 14.8396L14.8447 8.65967L12.4835 8.65308L12.4663 14.833L14.8275 14.8396Z" fill="#57B873"/>
<path d="M10.0882 20.1866L10.1055 14.0066L7.74425 14L7.72699 20.18L10.0882 20.1866Z" fill="#57B873"/>
<path d="M17.172 20.2066L17.1892 14.0266L14.828 14.02L14.8108 20.2L17.172 20.2066Z" fill="#57B873"/>
<path d="M24.256 20.2166L24.2732 14.0366L21.912 14.03L21.8948 20.21L24.256 20.2166Z" fill="#57B873"/>
<path d="M31.34 20.2364L31.3572 14.0564L28.9959 14.0498L28.9786 20.2298L31.34 20.2364Z" fill="#57B873"/>
<path d="M5.40599 23.1099L5.37595 35.4698L14.8209 35.4899L14.8409 27.2599L24.2858 27.2799L24.2658 35.5199L33.7107 35.5498L33.7407 23.1898L5.40599 23.1099Z" fill="#57B873"/>
<path d="M26.8273 14.18V8H24.466V14.18H26.8273Z" fill="#57B873"/>
<path d="M30.9694 0.540039C23.4564 1.7174 15.8043 1.69709 8.29763 0.47998C8.29763 0.47998 2.62463 4.57998 0.743652 2.47998C0.743652 2.47998 2.61466 6.60994 8.28762 4.55994L30.9594 4.63C36.6223 6.7 38.5233 2.63 38.5233 2.63C36.6323 4.67 30.9694 0.540039 30.9694 0.540039Z" fill="#57B873"/>
</svg>
