<svg width="107" height="107" viewBox="0 0 107 107" fill="none" xmlns="http://www.w3.org/2000/svg">
<path d="M53.5002 106C82.4951 106 106 82.495 106 53.5001C106 24.5051 82.4951 1 53.5002 1C24.5053 1 1 24.5051 1 53.5001C1 82.495 24.5053 106 53.5002 106Z" fill="#F4A023"/>
<path d="M11.8621 53.5001H73.4138M62.5517 29.9655L91.5172 53.5001L62.5517 77.0345M106 53.5001C106 82.495 82.4951 106 53.5002 106C24.5053 106 1 82.495 1 53.5001C1 24.5051 24.5053 1 53.5002 1C82.4951 1 106 24.5051 106 53.5001Z" stroke="white" stroke-width="2" stroke-miterlimit="10"/>
</svg>
