<svg width="95" height="123" viewBox="0 0 95 123" fill="none" xmlns="http://www.w3.org/2000/svg">
<path d="M63.1997 67.5701V69.7601C63.199 69.7978 63.2117 69.8345 63.2355 69.8638C63.2592 69.8931 63.2926 69.913 63.3297 69.9201C65.1813 70.1701 67.0581 70.1701 68.9097 69.9201C68.9485 69.9152 68.9843 69.8962 69.0101 69.8667C69.0359 69.8372 69.05 69.7993 69.0497 69.7601V67.5701C69.0498 67.5473 69.0451 67.5247 69.0359 67.5039C69.0266 67.483 69.013 67.4644 68.996 67.4492C68.9789 67.4341 68.9588 67.4228 68.937 67.416C68.9153 67.4093 68.8923 67.4072 68.8697 67.4101C67.0448 67.6601 65.1945 67.6601 63.3697 67.4101C63.3475 67.407 63.3249 67.409 63.3036 67.4158C63.2823 67.4226 63.2627 67.4341 63.2464 67.4495C63.2301 67.4648 63.2174 67.4836 63.2094 67.5045C63.2013 67.5253 63.198 67.5478 63.1997 67.5701Z" fill="#00893D"/>
<path d="M63.1997 82.51V84.7C63.199 84.7377 63.2117 84.7745 63.2355 84.8038C63.2592 84.833 63.2926 84.853 63.3297 84.86C65.1813 85.11 67.0581 85.11 68.9097 84.86C68.9485 84.8551 68.9843 84.8361 69.0101 84.8066C69.0359 84.7772 69.05 84.7392 69.0497 84.7V82.51C69.0498 82.4872 69.0451 82.4646 69.0359 82.4438C69.0266 82.423 69.013 82.4043 68.996 82.3892C68.9789 82.374 68.9588 82.3627 68.937 82.3559C68.9153 82.3492 68.8923 82.3472 68.8697 82.35C67.0448 82.6 65.1945 82.6 63.3697 82.35C63.3475 82.347 63.3249 82.3489 63.3036 82.3557C63.2823 82.3626 63.2627 82.3741 63.2464 82.3894C63.2301 82.4047 63.2174 82.4235 63.2094 82.4444C63.2013 82.4653 63.198 82.4877 63.1997 82.51Z" fill="#00893D"/>
<path d="M63.3697 70.7498C63.3479 70.7484 63.326 70.7516 63.3054 70.759C63.2848 70.7664 63.266 70.778 63.25 70.793C63.2341 70.808 63.2214 70.8261 63.2128 70.8462C63.2041 70.8663 63.1997 70.8879 63.1997 70.9098V74.9998C63.1994 75.039 63.2135 75.0769 63.2393 75.1064C63.2651 75.1359 63.3008 75.1549 63.3397 75.1598C65.191 75.3598 67.0584 75.3598 68.9097 75.1598C68.9486 75.1549 68.9843 75.1359 69.0101 75.1064C69.0359 75.0769 69.05 75.039 69.0497 74.9998V70.9098C69.0499 70.887 69.0452 70.8644 69.0359 70.8436C69.0267 70.8227 69.0131 70.8041 68.996 70.789C68.979 70.7738 68.9589 70.7625 68.9371 70.7557C68.9153 70.749 68.8923 70.7469 68.8697 70.7498C67.0418 70.9498 65.1976 70.9498 63.3697 70.7498Z" fill="#00893D"/>
<path d="M24.3896 67.5699V69.7599C24.392 69.8016 24.4097 69.8409 24.4392 69.8704C24.4687 69.8999 24.508 69.9175 24.5497 69.9199C26.6824 70.1699 28.837 70.1699 30.9697 69.9199C31.0121 69.9199 31.0528 69.9031 31.0828 69.8731C31.1128 69.8431 31.1296 69.8024 31.1296 69.7599V67.5699C31.1286 67.5457 31.1224 67.5219 31.1114 67.5003C31.1004 67.4787 31.0849 67.4596 31.066 67.4445C31.0471 67.4293 31.0251 67.4184 31.0016 67.4124C30.9781 67.4065 30.9535 67.4056 30.9296 67.4099C28.8271 67.6599 26.7022 67.6599 24.5996 67.4099C24.5752 67.4057 24.5502 67.4065 24.5261 67.4124C24.502 67.4183 24.4794 67.4291 24.4597 67.4441C24.44 67.4591 24.4236 67.478 24.4116 67.4997C24.3995 67.5213 24.392 67.5453 24.3896 67.5699Z" fill="#00893D"/>
<path d="M24.5896 70.7498C24.566 70.747 24.542 70.7489 24.5191 70.7555C24.4962 70.7621 24.4748 70.7731 24.4562 70.788C24.4376 70.8029 24.4222 70.8213 24.4107 70.8422C24.3993 70.8631 24.3921 70.8861 24.3896 70.9098V74.9998C24.3922 75.0431 24.4112 75.0838 24.4428 75.1136C24.4744 75.1433 24.5162 75.1598 24.5596 75.1598C26.6916 75.3597 28.8377 75.3597 30.9697 75.1598C31.0113 75.1574 31.0506 75.1398 31.0801 75.1103C31.1096 75.0807 31.1273 75.0414 31.1296 74.9998V70.9098C31.1272 70.8861 31.12 70.8631 31.1086 70.8422C31.0971 70.8213 31.0817 70.8029 31.0631 70.788C31.0445 70.7731 31.0231 70.7621 31.0002 70.7555C30.9773 70.7489 30.9533 70.747 30.9296 70.7498C28.821 70.9498 26.6982 70.9498 24.5896 70.7498Z" fill="#00893D"/>
<path d="M63.4798 85.7098C63.4445 85.7056 63.4087 85.7088 63.3749 85.7195C63.341 85.7301 63.3097 85.7479 63.2833 85.7715C63.2568 85.7952 63.2356 85.8242 63.2212 85.8567C63.2068 85.8891 63.1995 85.9243 63.1998 85.9598V92.1398C63.1968 92.2003 63.2168 92.2597 63.2557 92.306C63.2946 92.3524 63.3497 92.3823 63.4098 92.3898C65.2085 92.6298 67.0311 92.6298 68.8298 92.3898C68.8916 92.3847 68.9492 92.3558 68.9902 92.3092C69.0312 92.2626 69.0526 92.2019 69.0498 92.1398V85.9998C69.05 85.9643 69.0427 85.9291 69.0283 85.8967C69.0139 85.8642 68.9928 85.8352 68.9663 85.8115C68.9398 85.7879 68.9085 85.7701 68.8747 85.7595C68.8408 85.7488 68.805 85.7456 68.7698 85.7498C67.0122 85.9666 65.2338 85.9531 63.4798 85.7098Z" fill="#00893D"/>
<path d="M24.3897 82.59V85.92C24.3862 85.9733 24.3998 86.0263 24.4286 86.0713C24.4574 86.1163 24.4998 86.1509 24.5497 86.17C26.6728 86.55 28.8466 86.55 30.9697 86.17C31.0206 86.1523 31.064 86.118 31.093 86.0727C31.122 86.0274 31.1349 85.9736 31.1297 85.92V82.59C31.1297 82.44 31.0397 82.33 30.9297 82.35C28.8368 82.7299 26.6926 82.7299 24.5997 82.35C24.4897 82.33 24.3897 82.44 24.3897 82.59Z" fill="#00893D"/>
<path d="M24.7098 87.4702C24.5398 87.4702 24.3898 87.6102 24.3898 87.8402V97.2602C24.3814 97.3427 24.4016 97.4255 24.4472 97.4947C24.4927 97.5639 24.5608 97.6153 24.6398 97.6402C26.7034 98.0102 28.8163 98.0102 30.8798 97.6402C30.9599 97.6171 31.0291 97.5661 31.075 97.4964C31.1208 97.4267 31.1402 97.343 31.1298 97.2602V87.8402C31.1298 87.6102 30.9798 87.4402 30.8098 87.4702C28.7907 87.8102 26.7289 87.8102 24.7098 87.4702Z" fill="#00893D"/>
<path d="M43.3198 67.5701V69.7601C43.3248 69.8043 43.3459 69.8451 43.3791 69.8747C43.4124 69.9042 43.4553 69.9204 43.4998 69.9201C45.9368 70.1702 48.3929 70.1702 50.8298 69.9201C50.8743 69.9204 50.9173 69.9042 50.9505 69.8747C50.9838 69.8451 51.0049 69.8043 51.0098 69.7601V67.5701C51.0098 67.4701 50.8998 67.4001 50.7798 67.4101C48.3763 67.6601 45.9533 67.6601 43.5498 67.4101C43.4298 67.4001 43.3198 67.4701 43.3198 67.5701Z" fill="#00893D"/>
<path d="M43.5498 70.7499C43.4298 70.7499 43.3198 70.8199 43.3198 70.9099V74.9999C43.327 75.0449 43.3502 75.0858 43.3851 75.1152C43.4199 75.1446 43.4642 75.1604 43.5098 75.1599C45.9424 75.3598 48.3873 75.3598 50.8198 75.1599C50.8637 75.1581 50.9056 75.1412 50.9384 75.112C50.9712 75.0829 50.9929 75.0432 50.9998 74.9999V70.9099C50.9998 70.8199 50.8898 70.7399 50.7698 70.7499C48.3673 70.9493 45.9524 70.9493 43.5498 70.7499Z" fill="#00893D"/>
<path d="M43.3199 82.5899V85.9199C43.3182 85.977 43.3361 86.0329 43.3707 86.0784C43.4053 86.1239 43.4544 86.1562 43.5098 86.1699C46.0893 86.5499 48.7104 86.5499 51.2898 86.1699C51.3453 86.1562 51.3944 86.1239 51.429 86.0784C51.4636 86.0329 51.4815 85.977 51.4798 85.9199V82.5899C51.4832 82.5566 51.479 82.5231 51.4675 82.4917C51.4559 82.4604 51.4374 82.4321 51.4133 82.409C51.3892 82.3858 51.3602 82.3685 51.3284 82.3582C51.2966 82.348 51.2629 82.3451 51.2298 82.3499C48.6873 82.7299 46.1024 82.7299 43.5598 82.3499C43.5276 82.3468 43.495 82.3509 43.4645 82.3618C43.4339 82.3728 43.4062 82.3904 43.3833 82.4133C43.3604 82.4362 43.3428 82.464 43.3318 82.4945C43.3208 82.525 43.3168 82.5576 43.3199 82.5899Z" fill="#00893D"/>
<path d="M43.6098 87.3001C43.5746 87.2959 43.5388 87.2992 43.5049 87.3098C43.4711 87.3205 43.4398 87.3382 43.4133 87.3619C43.3868 87.3855 43.3657 87.4145 43.3513 87.447C43.3369 87.4795 43.3296 87.5146 43.3298 87.5501V103.26C43.3296 103.323 43.3532 103.384 43.3959 103.43C43.4385 103.477 43.4971 103.505 43.5598 103.51C46.1151 103.73 48.6846 103.73 51.2398 103.51C51.3026 103.505 51.3612 103.477 51.4038 103.43C51.4465 103.384 51.47 103.323 51.4698 103.26V87.5501C51.4701 87.5146 51.4628 87.4795 51.4484 87.447C51.434 87.4145 51.4128 87.3855 51.3863 87.3619C51.3599 87.3382 51.3286 87.3205 51.2947 87.3098C51.2609 87.2992 51.2251 87.2959 51.1898 87.3001C48.6746 87.6402 46.1251 87.6402 43.6098 87.3001Z" fill="#00893D"/>
<path d="M26.7097 106C42.1997 108.61 54.3197 108.19 66.2997 95.57C66.399 95.466 66.5334 95.4026 66.6769 95.3922C66.8203 95.3817 66.9625 95.4249 67.0759 95.5133C67.1892 95.6018 67.2657 95.7292 67.2905 95.8709C67.3152 96.0126 67.2864 96.1583 67.2097 96.28C61.8097 104.43 49.8697 115.09 26.4097 107.28C26.24 107.24 26.093 107.135 26.0011 106.986C25.9092 106.838 25.8799 106.66 25.9197 106.49C25.9595 106.32 26.0651 106.173 26.2132 106.081C26.3614 105.989 26.5399 105.96 26.7097 106Z" fill="#FAC03D"/>
<path d="M5.33984 99.1698C5.24255 99.0081 5.21167 98.815 5.25365 98.631C5.29564 98.447 5.40725 98.2865 5.56505 98.183C5.72286 98.0795 5.91461 98.0411 6.10008 98.076C6.28555 98.1108 6.45033 98.2161 6.55984 98.3698C12.0298 105.45 22.5599 113.98 41.3499 113.21C73.0199 111.91 73.6799 84.9098 84.3499 89.7798C94.7699 94.5498 80.8898 121.26 51.8098 122.32C27.8998 123.19 12.9198 112.91 5.33984 99.1698Z" fill="#00893D"/>
<path d="M47.3299 0.560059C48.4338 3.49244 50.0563 6.20228 52.1199 8.56006L52.7999 9.34006L51.8999 9.21006C48.8717 8.78006 45.798 8.78006 42.7699 9.21006L41.8699 9.34006L42.6699 8.41006C44.614 6.14924 46.1624 3.57641 47.2499 0.800058L47.3299 0.560059Z" fill="#00893D"/>
<path d="M59.7597 23.2698V23.0698C59.7761 22.8602 59.726 22.6507 59.6165 22.4712C59.507 22.2916 59.3437 22.1512 59.1497 22.0698C57.9675 21.517 56.9651 20.6421 56.2575 19.5454C55.55 18.4488 55.1661 17.1748 55.1497 15.8698C55.1546 14.8431 55.3909 13.8307 55.8411 12.9079C56.2912 11.9851 56.9436 11.1757 57.7497 10.5398C57.7749 10.5153 57.7914 10.4832 57.7965 10.4484C57.8016 10.4136 57.7951 10.3782 57.778 10.3474C57.761 10.3167 57.7343 10.2925 57.702 10.2784C57.6698 10.2644 57.6339 10.2614 57.5998 10.2698C54.126 11.2902 50.538 11.8714 46.9197 11.9998C43.385 11.8751 39.8789 11.3176 36.4797 10.3398C36.4453 10.3199 36.4043 10.3145 36.3659 10.3249C36.3274 10.3352 36.2946 10.3603 36.2747 10.3948C36.2549 10.4293 36.2495 10.4703 36.2598 10.5087C36.2701 10.5472 36.2953 10.5799 36.3298 10.5998C37.1139 11.2368 37.7467 12.04 38.1825 12.9514C38.6184 13.8628 38.8463 14.8596 38.8498 15.8698C38.8289 17.2358 38.4087 18.5659 37.6411 19.696C36.8735 20.8261 35.7919 21.7069 34.5297 22.2298C34.3285 22.3092 34.1554 22.4467 34.0325 22.6248C33.9096 22.8029 33.8425 23.0135 33.8397 23.2298C33.8229 24.0512 33.5684 24.8501 33.107 25.5299C32.6455 26.2096 31.9969 26.741 31.2397 27.0598H62.4497C61.6811 26.7586 61.0171 26.2395 60.5392 25.5662C60.0614 24.893 59.7904 24.0948 59.7597 23.2698Z" fill="#1CAF76"/>
<path d="M84.4298 47.9999C88.1098 44.9999 86.9698 40.3799 86.3698 38.6499C86.3457 38.5775 86.303 38.5125 86.2462 38.4615C86.1893 38.4105 86.1201 38.3752 86.0454 38.3591C85.9708 38.3429 85.8932 38.3465 85.8203 38.3695C85.7474 38.3924 85.6818 38.4339 85.6298 38.4899C83.9446 39.94 81.8451 40.8218 79.6298 41.0099C77.7379 41.2627 75.8128 41.0269 74.0378 40.325C72.2628 39.623 70.6971 38.4783 69.4898 36.9999L63.9998 30.1799C63.8628 30.013 63.6903 29.8788 63.4948 29.7871C63.2993 29.6954 63.0858 29.6486 62.8698 29.6499H31.5998C31.3839 29.6486 31.1704 29.6954 30.9749 29.7871C30.7794 29.8788 30.6068 30.013 30.4698 30.1799L24.9398 36.9999C23.743 38.4863 22.1855 39.6416 20.4159 40.3558C18.6462 41.07 16.7231 41.3193 14.8298 41.0799C12.6146 40.8918 10.515 40.01 8.82983 38.5599C8.77679 38.5042 8.71035 38.4631 8.63687 38.4403C8.56339 38.4176 8.48531 38.4141 8.41009 38.4302C8.33487 38.4462 8.26501 38.4813 8.2072 38.532C8.14938 38.5827 8.10553 38.6474 8.07983 38.7199C7.47983 40.4499 6.34983 45.0699 10.0798 48.0699L0.439833 62.9199C0.270806 63.1832 0.175894 63.4872 0.165099 63.7999C0.154304 64.1126 0.228019 64.4224 0.378485 64.6967C0.528952 64.9711 0.750601 65.1997 1.02009 65.3587C1.28959 65.5176 1.59696 65.601 1.90983 65.5999H93.3298C93.5634 65.6008 93.7928 65.5386 93.9941 65.4201C94.1953 65.3016 94.3609 65.1311 94.4735 64.9264C94.586 64.7218 94.6414 64.4906 94.6337 64.2572C94.626 64.0238 94.5556 63.7967 94.4298 63.5999L84.4298 47.9999Z" fill="#007431"/>
<path d="M78.7498 77.0498H14.8098C13.9924 77.0498 13.3298 77.7124 13.3298 78.5298V79.1198C13.3298 79.9372 13.9924 80.5998 14.8098 80.5998H78.7498C79.5672 80.5998 80.2298 79.9372 80.2298 79.1198V78.5298C80.2298 77.7124 79.5672 77.0498 78.7498 77.0498Z" fill="#F4A023"/>
<path d="M20.3998 77.85C20.3998 77.85 18.7698 73.85 14.8398 75.85C10.9098 77.85 9.58984 76.04 9.58984 76.04C9.58984 76.04 12.8098 84.54 19.7698 80.04L20.3998 77.85Z" fill="#F4A023"/>
<path fill-rule="evenodd" clip-rule="evenodd" d="M36.4698 48L36.7598 47.88L36.5998 47.97L36.3898 48.09L36.4998 48.03L36.8498 47.86L36.2898 48.15C36.499 48.023 36.7161 47.9094 36.9398 47.81L37.2398 47.68L37.0798 47.74L36.7498 47.91H36.6598L36.8898 47.79L37.0098 47.73L37.4398 47.55H37.2798L37.0798 47.63C37.2598 47.54 37.4498 47.47 37.6298 47.4H37.7498C37.5798 47.458 37.4129 47.5248 37.2498 47.6H37.4098C37.5181 47.547 37.6322 47.5068 37.7498 47.48H37.5998H37.6698H37.6198C37.6884 47.4671 37.7554 47.4469 37.8198 47.42H38.0298L38.2098 47.36C38.4995 47.3401 38.7901 47.3401 39.0798 47.36C39.1494 47.3624 39.2182 47.3451 39.2784 47.3102C39.3385 47.2752 39.3876 47.224 39.42 47.1623C39.4524 47.1007 39.4667 47.0312 39.4614 46.9618C39.456 46.8924 39.4312 46.826 39.3898 46.77C39.1588 46.4644 38.8975 46.183 38.6098 45.93C38.1598 45.57 37.8998 45.61 37.3998 45.93C37.076 46.0946 36.742 46.2382 36.3998 46.36C36.4798 46.45 36.5898 46.61 36.7198 46.75C36.9998 47.44 36.9998 47.43 36.4698 48Z" fill="white"/>
<path fill-rule="evenodd" clip-rule="evenodd" d="M42.1498 51.07C41.344 51.1615 40.5454 51.3085 39.7598 51.51V51.46L39.6998 51.4C39.6998 51.4 39.6998 51.4 39.6498 51.4L39.5298 51.31L39.3498 51.21C39.4326 51.1006 39.5265 51.0001 39.6298 50.91L39.7898 50.78C39.9814 50.6322 40.1983 50.5203 40.4298 50.45H40.3298L40.1898 50.52C40.093 50.5707 39.9995 50.6275 39.9098 50.69C40.2037 50.4702 40.5471 50.3259 40.9098 50.27H40.9998C40.9298 50.27 40.9098 50.27 40.7998 50.35C40.5397 50.3974 40.2916 50.496 40.0698 50.64H40.3698C40.4577 50.6012 40.5479 50.5678 40.6398 50.54C40.7398 50.54 40.8498 50.54 40.8698 50.54L40.6498 50.6H40.7498V50.66H40.6698C40.6698 50.66 40.8798 50.66 40.9598 50.66H41.1198C41.1998 50.66 41.1998 50.66 41.2698 50.66H41.1998H41.6498L41.8498 50.74C42.3698 50.91 44.3098 50.74 44.1298 50.3C43.329 49.3604 42.4564 48.4844 41.5198 47.68H41.2798C41.2798 47.58 41.0398 47.68 41.0198 47.55H40.9598C40.9598 47.48 40.9598 47.46 40.8598 47.55L40.7698 47.49H40.8298H40.7498V47.54H40.6898C40.6898 47.46 40.6098 47.54 40.4398 47.54C40.3299 47.5334 40.2197 47.5334 40.1098 47.54C39.9598 47.54 39.6298 47.73 39.3998 47.81C39.2772 47.8496 39.157 47.8963 39.0398 47.95C38.8998 48.01 38.6998 48.02 38.6698 48.1C38.4898 48.1 38.4498 48.22 38.2598 48.27C38.1113 48.3415 37.9575 48.4017 37.7998 48.45C37.0444 48.7638 36.3126 49.1314 35.6098 49.55H35.4798L35.2698 49.63L35.0898 49.72H35.1698L34.7598 49.92C34.6598 49.92 34.3798 50.12 34.2098 50.21C34.1481 50.2299 34.0816 50.2299 34.0198 50.21C34.0198 50.21 34.0198 50.12 34.0198 50.07C34.0246 50.0234 34.0246 49.9765 34.0198 49.93C34.0101 49.7676 34.0304 49.6049 34.0798 49.45V49.53C34.0749 49.5631 34.0749 49.5968 34.0798 49.63C34.0699 49.703 34.0699 49.777 34.0798 49.85C34.0651 49.7304 34.0651 49.6095 34.0798 49.49C34.1012 49.367 34.1347 49.2464 34.1798 49.13C34.178 49.1033 34.178 49.0766 34.1798 49.05C34.1798 49.05 34.1798 49.11 34.1798 49.19C34.115 49.3636 34.0746 49.5453 34.0598 49.73V49.57C34.0717 49.5022 34.0884 49.4354 34.1098 49.37C34.1098 49.29 34.1098 49.22 34.1698 49.22C34.1653 49.2699 34.1653 49.3201 34.1698 49.37V49.3V49.36C34.2018 49.299 34.2286 49.2355 34.2498 49.17V49.08C34.2498 49.08 34.2498 49.08 34.2498 49L34.3798 48.82C34.4265 48.7636 34.4766 48.7102 34.5298 48.66C34.5734 48.6097 34.6239 48.566 34.6798 48.53L34.8098 48.4L34.7098 48.51H34.7798H34.7298L34.8198 48.43H34.8998H34.8498L34.9998 48L35.1698 47.92L35.3798 47.84H35.1098C35.2369 47.7909 35.3672 47.7508 35.4998 47.72C35.3698 47.72 35.2398 47.79 35.1098 47.84H34.9598H35.1198L34.8898 47.92H34.4198L34.1998 48C34.1518 48.0132 34.1073 48.0371 34.0698 48.07C33.3224 48.3734 32.6427 48.8221 32.0698 49.39C30.4898 50.88 30.8398 51.59 31.2798 51.94C31.5054 52.18 31.7158 52.4338 31.9098 52.7C31.3404 53.0973 30.713 53.4043 30.0498 53.61C28.9098 53.96 30.8398 55.37 31.1898 55.37C32.4646 54.8359 33.7664 54.3686 35.0898 53.97C34.9898 54.08 34.8798 54.19 34.7698 54.29H34.7098L34.7698 54.22C34.7407 54.2441 34.7139 54.2709 34.6898 54.3C34.7716 54.2215 34.8484 54.138 34.9198 54.05C34.8198 54.16 34.7298 54.27 34.6198 54.37H34.5498L34.6198 54.31L33.8598 54.74H33.7598C33.7598 54.74 33.8198 54.68 33.8998 54.63L34.4898 54.29H34.4098L34.2898 54.35H34.2298C34.1498 54.35 33.8698 54.59 33.8298 54.57L33.9998 54.46H33.9198H33.9898C33.9898 54.46 33.7998 54.54 33.7398 54.57L33.6098 54.64C33.5398 54.64 33.5498 54.69 33.4998 54.72H33.5498L33.2998 54.9C33.2098 54.9 32.9598 55.18 32.8898 55.19L32.7398 55.32H32.5598H32.7098H32.6298C32.3498 55.32 32.3198 55.32 32.3998 55.65C32.4484 55.8701 32.5419 56.0778 32.6744 56.2602C32.8069 56.4426 32.9755 56.5957 33.1698 56.71C33.1698 56.71 33.1698 56.79 33.1698 56.8L33.2798 56.92H33.3698L33.3098 56.82L33.4698 56.87H33.9398V56.93H33.8098H34.0798C34.2798 56.93 34.1798 56.87 34.4398 56.93H34.3898C34.5298 56.93 34.5898 56.93 34.5398 56.93H34.6798H34.5998C34.7698 56.93 34.7198 56.93 34.7598 56.86C34.9898 56.86 35.2498 56.86 35.5298 56.93H35.4798C35.4496 56.9884 35.4162 57.0452 35.3798 57.1C35.3575 57.1284 35.3375 57.1585 35.3198 57.19C35.3198 57.19 35.2398 57.19 35.2498 57.28C35.2598 57.37 35.2498 57.34 35.1598 57.37C35.0698 57.4 35.0798 57.45 35.0498 57.46L34.9798 57.52L34.7698 57.69H34.8498L34.6198 57.84L34.4498 57.92H34.5398L34.8098 57.8L34.3598 58L34.8798 57.77L35.1098 57.64L34.9998 57.71C34.9249 57.7754 34.8407 57.8294 34.7498 57.87H34.6698L34.8498 57.78L34.9998 58L35.3098 57.81H35.1998L34.9998 58C35.1619 57.9015 35.3188 57.7946 35.4698 57.68H35.5298C35.1635 58.0081 34.7609 58.2932 34.3298 58.53H34.2698L34.0498 58.62C33.8432 58.7 33.6332 58.77 33.4198 58.83H33.3398L33.5698 58.77L32.9198 58.96L32.4798 59.06H32.7098L33.4098 58.88H33.3198C32.9389 58.9991 32.5469 59.0796 32.1498 59.12H31.9998C32.4514 59.0827 32.8974 58.9955 33.3298 58.86L33.6698 58.76H33.5398C33.3168 58.8413 33.0899 58.9114 32.8598 58.97H32.5898L33.0598 58.86L33.2998 58.79C32.8566 58.9478 32.3971 59.0551 31.9298 59.11C32.6105 59.274 33.3098 59.348 34.0098 59.33C34.316 59.3707 34.6275 59.3398 34.9198 59.24L35.1798 59.18H35.1198L34.7598 59.3H34.4898C34.6497 59.2787 34.8071 59.2419 34.9598 59.19L35.1898 59.11H35.4098H35.3198L35.4598 59.04L35.7398 58.94L35.5898 59.03H35.6898L35.8698 58.94H35.9598C36.098 58.8834 36.2317 58.8165 36.3598 58.74L36.2698 58.8C36.3917 58.7391 36.5087 58.6689 36.6198 58.59L36.7998 58.47C36.8469 58.438 36.8905 58.4011 36.9298 58.36L36.8598 58.43L37.2198 58.14C37.2698 58.14 37.3898 57.98 37.4998 57.86C37.6098 57.74 37.7098 57.61 37.7498 57.58L37.8198 57.46C38.6622 57.6994 39.4742 58.035 40.2398 58.46L39.8998 58.36H40.0498C39.8998 58.36 39.7498 58.28 39.5998 58.24L39.2898 58.16L39.4398 58.21C39.5998 58.21 39.7598 58.31 39.9098 58.36H39.8498C39.591 58.2715 39.3272 58.198 39.0598 58.14H38.9998C39.3019 58.2069 39.5992 58.2937 39.8898 58.4L40.2898 58.54H40.2298L40.0298 58.47C39.8712 58.4381 39.7143 58.3981 39.5598 58.35H39.3798L39.6898 58.45H39.8498L40.4098 58.65H40.1998L39.9498 58.56C40.2385 58.6518 40.5223 58.7586 40.7998 58.88H40.8898C40.8398 58.88 40.8098 58.88 40.7198 58.82C40.6298 58.76 40.2998 58.65 40.0798 58.58H40.3298L40.5598 58.66C40.6277 58.6838 40.6918 58.7175 40.7498 58.76L40.5598 58.69H40.6398H40.5798C40.5798 58.69 40.7498 58.78 40.8098 58.81L40.9398 58.88C40.9998 58.88 41.0098 58.88 41.0698 58.88H41.0098L41.2798 59.01L41.5098 59.12L41.6398 59.19L41.7698 59.27H41.9998C42.2556 59.2979 42.5141 59.2548 42.7469 59.1454C42.9798 59.036 43.178 58.8646 43.3198 58.65C43.3404 58.5883 43.3404 58.5216 43.3198 58.46C43.3234 58.5166 43.3234 58.5734 43.3198 58.63L43.3798 58.71C43.2938 58.2964 43.1236 57.905 42.8798 57.56C42.7686 57.4 42.6484 57.2464 42.5198 57.1L42.5798 57.16L42.7698 57.39C42.849 57.4577 42.9195 57.535 42.9798 57.62C43.051 57.7183 43.1145 57.8219 43.1698 57.93L43.2598 58.1C43.2674 58.1227 43.2674 58.1473 43.2598 58.17C43.1964 58.0282 43.1229 57.8912 43.0398 57.76C43.0024 57.6897 42.9589 57.6227 42.9098 57.56C42.7472 57.3322 42.5702 57.1151 42.3798 56.91L42.4698 57.01L42.5998 57.13L42.8398 57.44C42.5656 57.1091 42.2646 56.8014 41.9398 56.52L41.8198 56.42C41.8898 56.48 41.9398 56.48 42.0498 56.56C42.3009 56.7711 42.5381 56.9982 42.7598 57.24L42.7098 57.14L42.5898 56.98L42.5298 56.91L42.2498 56.66C42.1398 56.57 42.0398 56.48 42.0398 56.45L42.2698 56.63L42.1698 56.54H42.2398L42.3198 56.62C42.3198 56.62 42.1098 56.41 42.0298 56.33L41.8698 56.19C41.7798 56.12 41.7598 56.14 41.6898 56.08H41.7798C41.6498 56 41.5198 55.92 41.3798 55.85H41.3298C41.2159 55.7839 41.0952 55.7303 40.9698 55.69C40.859 55.6536 40.7518 55.6067 40.6498 55.55L40.3398 55.47H40.3998L40.6398 55.55H40.3598C40.2152 55.4623 40.056 55.4013 39.8898 55.37C39.6798 55.37 39.3098 55.31 38.8898 55.28C38.9898 55.01 39.0398 54.81 39.0698 54.71C39.1698 54.38 39.3198 53.96 39.4798 53.54C39.7693 53.515 40.0604 53.515 40.3498 53.54H40.5198C40.4499 53.5359 40.3798 53.5359 40.3098 53.54C40.0471 53.515 39.7826 53.515 39.5198 53.54H40.1298C40.2398 53.54 40.3498 53.54 40.3598 53.54H40.1598C40.263 53.5485 40.3667 53.5485 40.4698 53.54H40.8198H40.7398C40.8598 53.54 40.9698 53.54 41.0898 53.54H41.2098C41.1571 53.5516 41.1025 53.5516 41.0498 53.54H40.9098L40.5098 53.66H40.6498L40.2398 53.77L39.9598 53.83H40.1098L40.5498 53.75H40.4998L39.7698 53.88H39.7198L40.5598 53.73L40.9398 53.65H40.9998H40.7998C40.6629 53.6975 40.5225 53.7342 40.3798 53.76H40.2498H40.6998L41.2298 53.65H41.0298L40.7798 53.71L41.5998 53.5H41.6898C41.6398 53.5 41.6198 53.5 41.5398 53.56L40.9198 53.72H41.1298C41.2666 53.6744 41.4072 53.6409 41.5498 53.62L41.3698 53.67H41.4598H41.3898C41.3898 53.67 41.5698 53.67 41.6398 53.67H41.8898H41.8398L42.1098 53.59C42.7929 53.8156 43.4872 54.0058 44.1898 54.16C45.1298 54.39 45.4798 53.87 45.5798 53.56C45.6798 53.25 42.8598 51.07 42.1498 51.07ZM42.9998 57.91V58C43.0698 58.12 43.1398 58.24 43.1998 58.36C43.1434 58.2621 43.0799 58.1685 43.0098 58.08L42.9198 57.95L42.9998 57.91ZM33.4498 53.18C33.1861 53.2622 32.9036 53.2622 32.6398 53.18C32.6132 53.168 32.5919 53.1466 32.5798 53.12H32.7298C32.7298 53.12 32.7298 53.12 32.8498 53.12H32.9898C33.059 53.0819 33.1229 53.0348 33.1798 52.98H33.2498C33.5198 52.98 33.7798 52.98 34.0498 52.91H33.3798C33.7898 52.91 34.1998 52.83 34.5998 52.76H34.7998L34.5598 52.82C34.2465 52.8733 33.9365 52.9133 33.6298 52.94H33.9998L34.6298 52.85H34.3598H34.4898H34.3398C34.4097 52.8566 34.48 52.8566 34.5498 52.85L33.9598 53.02L33.5698 53.14L33.4498 53.18ZM36.1598 52.18H35.8798L35.4298 52.34L35.1898 52.41C35.0998 52.41 34.9698 52.41 34.9498 52.47C34.9298 52.53 34.7898 52.47 34.6698 52.54C34.5498 52.61 34.4298 52.54 34.3598 52.54H34.1498L33.5598 52.61H33.6698H33.4698C33.512 52.5643 33.5489 52.5139 33.5798 52.46C33.6126 52.4014 33.633 52.3367 33.6398 52.27C33.6447 52.2168 33.6447 52.1632 33.6398 52.11C33.6398 52.11 33.6398 51.97 33.6398 51.9C33.6398 51.83 33.6398 51.83 33.6398 51.8C33.6398 51.77 33.6998 51.72 33.6398 51.69C33.5798 51.66 33.6398 51.62 33.6898 51.57C33.7398 51.52 33.6898 51.47 33.7598 51.45L33.8098 51.36L33.9698 51.13L33.8998 51.2L34.0898 50.98L34.2398 50.85L34.1498 50.91L33.9198 51.11C34.0398 50.99 34.1798 50.89 34.3098 50.78C34.1598 50.9 33.9998 51.02 33.8598 51.15L33.6698 51.35L33.7698 51.25C33.8353 51.157 33.9126 51.073 33.9998 51L34.0698 50.94L33.9098 51.08L33.7198 51.27C33.7324 51.2356 33.753 51.2048 33.7798 51.18V51.12L33.8298 51.06C33.9547 50.9535 34.0849 50.8534 34.2198 50.76C34.8598 50.3325 35.5818 50.043 36.3398 49.91C36.3813 50.6635 36.3071 51.4189 36.1198 52.15L36.1598 52.18ZM40.5298 49.87H40.2798L39.9498 49.79C40.1257 49.8028 40.2999 49.8329 40.4698 49.88L40.5298 49.87ZM39.7898 49.73C40.0098 49.73 40.2298 49.83 40.4498 49.89C40.1998 49.82 39.9598 49.76 39.7098 49.71H39.6498L39.7898 49.73ZM40.2198 49.85H40.4398L40.2398 49.79L40.2198 49.85ZM33.9098 49.93C33.9049 49.8634 33.9049 49.7966 33.9098 49.73C33.9003 49.7896 33.9003 49.8504 33.9098 49.91V49.93ZM33.8298 49.62C33.8249 49.6799 33.8249 49.7401 33.8298 49.8C33.8146 49.7376 33.8146 49.6724 33.8298 49.61V49.62ZM37.2798 50.17L37.2298 50.09V50.01L37.1698 49.94C37.1284 49.8853 37.0815 49.835 37.0298 49.79H36.9798C37.3607 49.7327 37.7448 49.6993 38.1298 49.69H38.1898C38.1898 49.69 38.1898 49.69 38.3398 49.69H39.2298C39.313 49.6959 39.3966 49.6959 39.4798 49.69C39.5697 49.6963 39.6599 49.6963 39.7498 49.69C39.8478 49.7075 39.9446 49.7309 40.0398 49.76H39.9998H40.1998H40.1398C39.9483 49.8565 39.7701 49.9775 39.6098 50.12L39.5498 50.17L39.7398 50.05C39.5707 50.1757 39.4193 50.3237 39.2898 50.49C39.2211 50.5621 39.1577 50.6389 39.0998 50.72L38.9998 51C38.9466 50.9691 38.8894 50.9455 38.8298 50.93H38.6798C38.6568 50.9245 38.6328 50.9245 38.6098 50.93H38.5598C38.5228 50.968 38.4924 51.012 38.4698 51.06C38.4651 51.1266 38.4651 51.1934 38.4698 51.26V51.42C38.4748 51.4698 38.4748 51.5201 38.4698 51.57V51.71L38.0698 51.81C37.9932 51.193 37.6903 50.6264 37.2198 50.22L37.2798 50.17ZM38.4998 51.68V51.74H38.4198V51.62L38.4998 51.68ZM39.1198 51.03C39.0649 51.009 39.0141 50.9786 38.9698 50.94L39.1198 51.03ZM38.9298 51H39.0198H38.8598H38.9598H38.9298ZM39.1898 51.04C39.187 51.0599 39.187 51.0801 39.1898 51.1L39.2498 51.04C39.3873 50.8705 39.5491 50.7223 39.7298 50.6H39.6598C39.4883 50.7189 39.3365 50.864 39.2098 51.03L39.1898 51.04ZM40.1398 50.37L39.8998 50.5L39.8298 50.57L39.6998 50.68C39.6182 50.7515 39.5414 50.8283 39.4698 50.91C39.4279 50.9486 39.391 50.9923 39.3598 51.04H39.2998C39.439 50.8592 39.6081 50.7037 39.7998 50.58C39.9448 50.471 40.1026 50.3803 40.2698 50.31L40.1398 50.37ZM33.9998 50.05H33.9398C33.9398 49.96 33.9398 49.88 33.9398 49.8C33.929 49.6802 33.929 49.5597 33.9398 49.44C33.9349 49.4999 33.9349 49.5601 33.9398 49.62C33.9398 49.62 33.9398 49.72 33.9398 49.8C33.9533 49.8847 33.9734 49.9683 33.9998 50.05ZM34.6698 54.5H34.6198C34.6198 54.5 34.6698 54.5 34.7198 54.43L34.6698 54.5ZM34.3698 54.58L34.4798 54.52L34.6498 54.43L34.5898 54.49L34.2898 54.64L34.3698 54.58ZM34.1798 59.42C34.384 59.4104 34.5876 59.3904 34.7898 59.36C34.591 59.4129 34.3855 59.4365 34.1798 59.43V59.42ZM36.0798 55.11C36.4173 54.5715 36.7915 54.0569 37.1998 53.57C37.4698 53.57 37.7398 53.51 38.0098 53.5C37.7798 54 37.4798 54.62 37.1098 55.37C36.5198 55.3 36.0798 55.22 36.0798 55.12V55.11Z" fill="white"/>
<path fill-rule="evenodd" clip-rule="evenodd" d="M18.8598 47.4601L19.0098 47.3801L18.8698 47.4601L18.9798 47.4001L19.3298 47.2401C19.1398 47.3301 18.9598 47.4301 18.7698 47.5401C18.9792 47.4163 19.1963 47.306 19.4198 47.2101L19.7198 47.0701L19.5598 47.1301L19.2298 47.3101H19.1398L19.3698 47.1901H19.4898C19.6287 47.1199 19.7724 47.0597 19.9198 47.0101H19.7598C19.6906 47.034 19.6236 47.0641 19.5598 47.1001C19.7798 47.0001 19.9998 46.9101 20.2198 46.8301H20.2998L19.9998 47.0001L19.4998 47.2001H19.5998C19.7099 47.1515 19.8236 47.1114 19.9398 47.0801L19.7898 47.1401H19.8598L20.0598 47.0701H20.2698L20.4798 47.0101C20.606 46.9949 20.7336 46.9949 20.8598 47.0101C20.9888 47.0329 21.1208 47.0329 21.2498 47.0101C21.322 47.0033 21.3907 46.976 21.4478 46.9314C21.505 46.8868 21.5482 46.8269 21.5724 46.7585C21.5966 46.6902 21.6007 46.6164 21.5843 46.5458C21.5679 46.4752 21.5317 46.4108 21.4798 46.3601C21.176 45.9779 20.819 45.6412 20.4198 45.3601C20.2498 45.3601 20.1198 45.4501 19.8998 45.1001C19.3412 45.6557 18.6123 46.0078 17.8298 46.1001C17.8298 46.1001 18.3498 46.4501 18.8298 46.7101C19.3098 46.9701 18.8598 47.4601 18.8598 47.4601Z" fill="white"/>
<path fill-rule="evenodd" clip-rule="evenodd" d="M28.9999 56.1898H28.7899L28.5699 56.0598H28.6599H28.4799L27.9399 55.7598L27.8099 55.6998L27.5599 55.5698L27.7599 55.6498C27.9172 55.6847 28.0687 55.742 28.2099 55.8198L28.3399 55.8798L28.0499 55.7198L27.3399 55.4098H27.5599L27.8099 55.5198C27.5199 55.4098 27.2299 55.2998 26.9399 55.2098H26.8399C26.8999 55.2098 26.9299 55.2098 27.0299 55.2098L27.6999 55.4298L27.6399 55.3698L27.5199 55.2998H27.4599C27.3699 55.2998 27.0199 55.1998 27.0099 55.1298H27.2099H27.1199H27.1999C27.1999 55.1298 27.0099 55.0398 26.9399 55.0098H26.7899C26.7199 55.0098 26.7099 55.0098 26.6499 55.0098H26.7199H26.3999C26.3099 55.0098 25.9399 55.0098 25.8899 54.9398H25.6599H25.9999L24.7499 54.4798H24.6399H24.7799C24.7799 54.4798 24.5599 54.3698 24.4699 54.3298L24.2999 54.2598C24.2199 54.2598 24.2099 54.2598 24.1399 54.2598H24.2199L23.8499 54.1498C23.7499 54.1498 23.2999 54.0298 23.2499 53.9598H23.1199C22.2499 53.5798 21.7799 53.2498 22.2299 52.9598C23.1227 52.3686 23.9716 51.7136 24.7699 50.9998C24.7699 50.9998 24.6899 51.0898 24.6099 51.1498C24.5499 51.207 24.4864 51.2604 24.4199 51.3098L24.2899 51.4198C24.168 51.5164 24.0412 51.6065 23.9099 51.6898L24.0599 51.6098C23.929 51.6993 23.792 51.7795 23.6499 51.8498L23.3599 51.9898L23.5199 51.9298L23.9799 51.6998H23.9199C23.6706 51.8293 23.4134 51.9428 23.1499 52.0398C23.453 51.9293 23.7472 51.7955 24.0299 51.6398L24.4099 51.4098H24.3499L24.1599 51.5198C24.0213 51.6195 23.874 51.7065 23.7199 51.7798L23.5899 51.8398H23.5399L23.8599 51.6898L24.0099 51.6098L24.5499 51.2798L24.4699 51.3398L24.3599 51.4198L24.1099 51.5698C24.3905 51.4039 24.6579 51.2167 24.9099 51.0098L24.9999 50.9398C24.9483 50.9813 24.9014 51.0282 24.8599 51.0798C24.6681 51.2344 24.4678 51.3779 24.2599 51.5098H24.3399L24.4599 51.4298H24.5199C24.6099 51.3798 24.8899 51.1398 24.9199 51.1298L24.7499 51.2698L24.8299 51.2098H24.7699C24.8565 51.1631 24.9371 51.106 25.0099 51.0398L25.1299 50.9298L25.2399 50.8298V50.8898L25.4799 50.6398C25.4799 50.6398 25.5899 50.4998 25.6599 50.3898C25.7075 50.3068 25.7476 50.2198 25.7799 50.1298C25.7952 50.0371 25.7952 49.9425 25.7799 49.8498V49.9098C25.7896 49.9795 25.7896 50.0501 25.7799 50.1198V50.0298C25.7837 49.9932 25.7837 49.9563 25.7799 49.9198C25.7942 49.8884 25.8017 49.8543 25.8017 49.8198C25.8017 49.7853 25.7942 49.7512 25.7799 49.7198C25.6499 49.3998 24.7799 47.8798 24.1899 47.7998C24.1412 47.7694 24.0864 47.7502 24.0294 47.7434C23.9724 47.7367 23.9146 47.7426 23.8602 47.7607C23.8057 47.7789 23.756 47.8088 23.7144 47.8484C23.6729 47.888 23.6406 47.9363 23.6199 47.9898H23.5299C23.4499 47.9298 23.4499 47.9898 23.3799 48.0698L23.2399 48.2098C23.2399 48.2898 23.1599 48.5098 23.0999 48.6398C23.0672 48.7108 23.0405 48.7844 23.0199 48.8598C23.0199 48.9498 22.8799 49.0198 22.9299 49.0798C22.9799 49.1398 22.9299 49.2398 22.8099 49.3298C22.6899 49.4198 22.7199 49.5498 22.6499 49.5798L22.5399 49.7498C22.4399 49.9098 22.3299 50.0698 22.2199 50.2298L22.3699 50.0898L22.0099 50.5498L21.7299 50.8398L21.8899 50.7098L22.3399 50.2698L22.2799 50.3298L21.5399 51.0598V51.1498L22.3999 50.3198C22.5199 50.1998 22.6299 50.0698 22.7499 49.9398L22.6599 50.0798L22.5499 50.1998C22.4439 50.3782 22.3163 50.5428 22.1699 50.6898L22.0499 50.8198H21.9899L22.2999 50.5198L22.3699 50.4398C22.0972 50.9004 21.7205 51.2908 21.2699 51.5798C21.1227 50.9061 21.2036 50.2025 21.4999 49.5798L21.5999 49.4398V49.3798L21.5099 49.5498L21.4399 49.6598L21.5699 49.4898L21.3599 49.7698L21.5999 49.4498L21.7099 49.2998V49.3798C21.6861 49.4446 21.6524 49.5054 21.6099 49.5598L21.6999 49.4498V49.3898L21.8199 49.2098L21.7499 49.3098L21.8399 49.1598L21.7899 49.2498V49.1998C21.832 49.2143 21.8777 49.2143 21.9199 49.1998C22.1182 49.0021 22.2568 48.7526 22.3199 48.4798C22.3343 48.4377 22.3343 48.3919 22.3199 48.3498C21.8775 48.0758 21.3581 47.9529 20.8399 47.9998C20.2699 47.7998 19.7499 47.7998 19.6599 47.9998C19.4799 48.4398 17.8299 49.2198 17.3799 49.4098C17.3718 49.3367 17.3718 49.2629 17.3799 49.1898L17.5199 49.1198L17.9299 48.9198H17.7799L18.1999 48.7398L18.4899 48.6398H18.3299L17.8699 48.7998H17.9299L18.6999 48.5498H18.7499L17.8699 48.8298L17.4699 48.9898H17.5299L17.7299 48.9098C17.8763 48.8412 18.0265 48.7811 18.1799 48.7298L18.3099 48.6798L17.9899 48.7898L17.8299 48.8498L17.2799 49.0598H17.3699L17.4799 48.9998L17.7499 48.8998L17.2799 49.0998H17.1299L17.5599 48.9098H17.2899L17.1299 48.9798C17.1299 48.9798 17.1299 48.9798 17.0299 48.9798C16.9389 49.0008 16.8514 49.0345 16.7699 49.0798L16.6299 49.1498C16.5886 49.1709 16.5485 49.1943 16.5099 49.2198L16.2299 49.3898H16.1799L15.2899 49.8398C15.1599 50.1498 15.9499 50.8398 16.2899 51.1198C16.3432 51.156 16.4055 51.1767 16.4699 51.1798C16.8299 51.4298 17.6999 50.7298 17.9199 50.5498C18.3958 50.258 18.8864 49.991 19.3899 49.7498C19.3949 49.8397 19.3949 49.9299 19.3899 50.0198C19.3843 50.0863 19.3843 50.1532 19.3899 50.2198C19.3899 50.2998 19.3299 50.3798 19.3899 50.4198C19.4499 50.4598 19.3899 50.5598 19.3899 50.6498C19.3899 50.7398 19.3899 50.8498 19.3899 50.8998V51.0698L19.3299 51.4898C19.0329 51.1947 18.6963 50.9423 18.3299 50.7398C18.291 50.7261 18.2487 50.7261 18.2099 50.7398H18.1499C18.1499 50.7398 18.0899 50.7398 18.0499 50.7398H17.9999C17.9999 50.7398 17.9999 50.7398 17.9299 50.7398H17.8599C17.8599 50.7398 17.8599 50.8598 17.7799 50.9098C17.6999 50.9598 17.7799 50.9698 17.7799 50.9898C17.7799 51.0098 17.7099 51.0498 17.7799 51.0798C17.8499 51.1098 17.7799 51.1398 17.7199 51.1698C17.6599 51.1998 17.6699 51.2598 17.6399 51.2598L17.5899 51.3198C17.5418 51.3812 17.4882 51.4381 17.4299 51.4898H17.4999L17.3299 51.6598L17.1999 51.7498H17.3599L16.9999 51.9998C16.5799 52.2998 16.0699 52.5798 15.9199 52.3798C15.8874 52.3357 15.8667 52.2841 15.8599 52.2298C15.8599 52.2298 15.8599 52.1698 15.9599 52.1398C16.0599 52.1098 16.0399 52.0698 16.0799 52.0698L16.1599 52.0198L16.3899 51.8798H16.2999L16.5499 51.7598L16.7199 51.6998H16.6199L16.3399 51.7898C16.4935 51.7308 16.6504 51.6807 16.8099 51.6398C16.6302 51.6825 16.4532 51.736 16.2799 51.7998L16.0399 51.8998L16.1599 51.8498C16.2407 51.7982 16.3282 51.7578 16.4199 51.7298H16.4999L16.3099 51.7898H16.2099L15.8799 51.9398H15.9499L16.1099 51.8698L15.7899 52.0398H15.6099C15.7322 51.9622 15.8591 51.8921 15.9899 51.8298H15.9099C15.8298 51.8877 15.7423 51.9348 15.6499 51.9698L15.7599 51.8998H15.7099C15.7099 51.8998 15.5899 51.8998 15.5499 51.9698H15.4699L15.3999 52.0298L15.2399 52.1498L14.5299 52.4898C14.3818 52.5891 14.253 52.7144 14.1499 52.8598C14.0299 53.0498 14.1499 53.4098 14.9999 54.0198C15.3799 54.2898 15.7599 54.0198 16.2299 53.6698C16.6999 53.3198 17.0699 53.0898 17.2299 53.1298C17.2299 53.1298 17.2299 53.1298 17.1399 53.2598L17.0699 53.3698L17.0199 53.4498C16.96 53.614 16.8899 53.7744 16.8099 53.9298C16.764 54.0032 16.7238 54.0801 16.6899 54.1598C16.6899 54.2598 16.5299 54.3598 16.5399 54.4098C16.5499 54.4598 16.4599 54.5698 16.3699 54.6798C16.3119 54.7791 16.245 54.8728 16.1699 54.9598L16.0199 55.1498C15.8799 55.3298 15.7399 55.4998 15.5899 55.6698V55.7298L15.7599 55.5598C15.6099 55.7298 15.4499 55.8898 15.2899 56.0598L14.9499 56.3698L15.1399 56.2198C15.3199 56.0598 15.4999 55.8998 15.6699 55.7298L15.6099 55.7998C15.3599 56.0298 15.1099 56.2598 14.8499 56.4798C14.3702 56.7771 13.8687 57.0378 13.3499 57.2598C17.2299 57.6998 18.2799 55.6698 18.3499 54.3498C18.3587 54.0842 18.4229 53.8235 18.5382 53.5841C18.6536 53.3448 18.8176 53.1321 19.0199 52.9598L19.2399 52.8098C19.2399 52.8098 19.2399 52.8098 19.1699 52.8798L18.8399 53.0898H18.9099C18.9599 53.0898 19.1099 52.9398 19.1399 52.9598L19.0399 53.0198C19.0399 53.0198 19.1399 53.0198 19.1799 52.9498C19.1799 53.6798 19.1199 54.3698 19.0899 54.8598C19.0656 55.7609 18.8968 56.6522 18.5899 57.4998L18.4599 57.4198L18.0999 57.1998L18.1999 57.3098L17.8499 57.0598L17.6299 56.8698L17.7299 56.9898L18.0599 57.3098L17.9399 57.1998L17.6999 56.9998L17.6299 56.9098L17.5299 56.8098H17.3999L17.6699 57.1598L17.7499 57.2298L17.9199 57.4398L18.0499 57.5698L18.1199 57.6298L18.0299 57.5298C17.9599 57.5298 17.7699 57.3198 17.6999 57.2398L17.6099 57.1498L17.7999 57.3798L17.9099 57.4898L18.0599 57.6498L17.9899 57.5798H18.0499H17.5599C17.6592 57.5637 17.7605 57.5637 17.8599 57.5798H17.7399H18.0499V57.6398L18.1199 57.7398C18.1899 57.7998 18.4499 57.9698 18.4299 58.0298L18.2799 57.9198L18.3399 57.9798H18.2799C18.2799 57.9798 18.3899 58.1198 18.4399 58.1698L18.5299 58.2698C18.5299 58.2698 18.5899 58.2698 18.6299 58.3398H18.5699L18.7899 58.4998L18.8599 58.5898C18.9199 58.6498 19.1399 58.7998 19.1199 58.8598L18.9999 58.7498V58.8098C18.9999 58.8098 19.0999 58.9398 19.1299 58.9798L19.2099 59.0698L19.2999 59.1398L19.4899 59.2898C19.4899 59.2898 19.7899 59.4798 19.7899 59.5498L19.9299 59.6498C20.1199 59.8298 20.2899 59.9498 20.3899 59.9298C20.4899 59.9098 20.5499 59.9998 20.5899 59.9298C21.2799 59.6198 22.0199 59.9298 21.7399 58.7898C21.4599 57.6498 20.9099 53.9998 21.1699 53.6198L21.3099 53.8298L21.3799 53.9198C21.4899 54.0698 21.8899 54.5598 21.8999 54.6198L21.6599 54.3298L21.7599 54.4698H21.6999L21.6199 54.3598C21.7054 54.5071 21.8024 54.6476 21.9099 54.7798L22.0699 55.0098C22.1499 55.1198 22.1599 55.1098 22.2299 55.2098V55.2598L22.1499 55.1698L22.5099 55.6298L22.8399 56.0298C23.0352 56.4448 23.2951 56.8262 23.6099 57.1598H23.5599L23.7499 57.3798C23.7499 57.4598 24.0699 57.6698 24.0599 57.7398L24.2199 57.8898L24.1099 57.7698V57.9098H24.1699V57.8398H24.2799V58.0498H24.3499V57.9898C24.4299 57.9298 24.3499 57.8698 24.4499 57.8098C24.5099 57.8098 24.5299 57.7498 24.4499 57.7398C24.4499 57.7398 24.4499 57.7398 24.5499 57.7398L24.4899 57.7898H24.4199L24.4799 57.8498C24.5599 57.8498 24.5499 57.8498 24.6399 57.9198C24.6399 57.9198 24.7099 57.9898 24.6999 57.9198C24.6999 57.9898 24.6999 57.9698 24.7699 57.9698H24.8999C24.8999 57.9698 25.0299 57.8398 25.0999 57.7798C25.1699 57.7198 25.1799 57.7798 25.1999 57.6898C25.2199 57.5998 25.3199 57.6898 25.3099 57.5998C25.2999 57.5098 25.3699 57.5198 25.4399 57.4998C25.5099 57.4798 25.5499 57.4098 25.5999 57.4298L25.7099 57.3698L26.0099 57.2198H25.8899L26.2099 57.0998H26.4399H26.3199L25.9499 57.1598L26.5499 57.0598L25.8599 57.1698H25.6899L25.9999 57.0198H26.1799H26.0399L26.4699 56.8098L26.7599 56.7098H26.8399H26.7199L26.8699 56.6298L27.2799 56.5198L27.7099 56.4498H27.2099H27.3199L27.6199 56.3998H28.0099H27.9199L27.5899 56.3498L28.1399 56.4598L28.9999 56.1898ZM21.4199 54.2998L21.3099 54.1598L21.2099 54.0298C21.2538 54.0624 21.2912 54.1031 21.3199 54.1498L21.4199 54.2998ZM28.2999 55.8898L28.4899 55.9998H28.4299L28.2999 55.8898ZM28.4299 55.9998H28.5099L28.7299 56.1298H28.5199L28.4299 55.9998ZM15.6699 55.9098L16.0999 55.4398L16.0399 55.5098L15.8199 55.7498C15.6706 55.9358 15.5067 56.1097 15.3299 56.2698L15.2699 56.3298L14.9399 56.5498C15.2199 56.3498 15.4599 56.1298 15.6899 55.9098H15.6699ZM15.3299 56.3098L15.4999 56.1498L15.6799 55.9698C15.8899 55.7598 16.0899 55.5398 16.2899 55.3098L16.1999 55.4198L16.0699 55.5698L15.7899 55.8798C16.1023 55.5392 16.396 55.1821 16.6699 54.8098L16.7699 54.6898C16.7193 54.764 16.6726 54.8408 16.6299 54.9198C16.4199 55.1998 16.1999 55.4798 15.9699 55.7398L16.0599 55.6698L16.2099 55.5198L16.2699 55.4398C16.3699 55.3298 16.6699 54.9098 16.7199 54.8898L16.5399 55.1398L16.6299 55.0298V55.0898L16.5499 55.1798C16.6534 55.0816 16.7441 54.9707 16.8199 54.8498L16.9299 54.7198C16.5015 55.3391 15.9665 55.8775 15.3499 56.3098H15.3299ZM17.4299 56.7798L17.6099 56.9598L17.6599 57.0398L17.9399 57.3698L17.8099 57.2698L17.4299 56.7898V56.7798ZM21.7899 54.8798C21.5499 54.5598 21.3099 54.2398 21.0599 53.8798L21.1399 53.9498L21.9499 55.0298V55.0998C21.9999 55.0698 21.9199 55.0498 21.8099 54.9098L21.7899 54.8798Z" fill="white"/>
<path fill-rule="evenodd" clip-rule="evenodd" d="M80.8397 60.16C80.8423 60.1267 80.8423 60.0933 80.8397 60.06C80.8092 59.8377 80.7658 59.6173 80.7098 59.4C80.689 59.2942 80.6589 59.1904 80.6197 59.09C80.5697 58.96 80.6197 58.78 80.5097 58.76C80.3997 58.74 80.4098 58.56 80.3798 58.4C80.3498 58.24 80.2397 58.12 80.2497 58.03C80.1997 58.03 80.2598 57.94 80.2497 58.03L80.1598 57.79C80.0798 57.57 79.9997 57.34 79.9398 57.11V57.03V57.28C79.8798 57.04 79.8297 56.8 79.7897 56.55C79.7497 56.3 79.7897 56.22 79.7897 56.06V56.32C79.7897 56.58 79.7898 56.85 79.8498 57.11V57.01C79.7982 56.5719 79.7715 56.1312 79.7698 55.69V55.59C79.7581 56.0943 79.7815 56.5989 79.8397 57.1C79.8397 57.33 79.9197 57.56 79.9697 57.79V57.69C79.9697 57.57 79.9697 57.46 79.8997 57.34C79.8129 57.0915 79.7591 56.8326 79.7398 56.57V56.34C79.7398 56.34 79.7398 56.34 79.7398 56.26C79.7398 56.44 79.7398 56.62 79.7398 56.8V57.08C79.7898 57.4 79.8597 57.72 79.9297 58.08C79.9007 57.995 79.8674 57.9115 79.8298 57.83V57.77L79.7398 57.31L79.8298 57.68C79.476 56.749 79.1919 55.7931 78.9797 54.82C78.9797 54.75 78.9797 54.68 78.9797 54.61C78.9797 54.54 79.0397 54.36 79.0798 54.24C79.1198 54.12 79.2197 53.9 79.2998 53.73L79.1497 53.97C79.0284 54.2408 78.9216 54.5178 78.8298 54.8V54.69C78.9831 54.2237 79.1912 53.7773 79.4497 53.36V53.24C79.1384 53.7097 78.8959 54.2215 78.7297 54.76C78.6545 55.0129 78.5944 55.27 78.5498 55.53C78.5449 55.4901 78.5449 55.4499 78.5498 55.41C78.5498 55.28 78.5498 55.15 78.6298 55.03C78.6313 54.8905 78.6549 54.7521 78.6997 54.62C78.6997 54.44 78.8098 54.26 78.8498 54.16L78.9497 53.92C78.943 53.8938 78.943 53.8662 78.9497 53.84C78.8697 54.03 78.7798 54.22 78.7098 54.41L78.6197 54.72C78.5139 55.0771 78.4337 55.4414 78.3798 55.81V55.63C78.3749 55.5501 78.3749 55.4699 78.3798 55.39C78.3798 55.22 78.4498 55.05 78.4898 54.89C78.37 55.4528 78.2998 56.025 78.2797 56.6C78.2748 56.6666 78.2748 56.7334 78.2797 56.8V56.88C78.2797 56.76 78.2797 56.71 78.2797 56.53C78.1448 56.0285 78.0512 55.5168 77.9997 55L77.9398 55.14C77.9118 55.222 77.8884 55.3054 77.8697 55.39V55.52C77.8697 55.61 77.8697 55.82 77.8697 56.01C77.8756 56.1452 77.8587 56.2804 77.8198 56.41C77.8198 56.28 77.8198 56.15 77.8198 56.02V56.2L77.7698 56.13V56C77.7698 56 77.7698 56.39 77.7098 56.53C77.6498 56.67 77.7098 56.72 77.7098 56.82C77.7098 56.92 77.7098 56.96 77.7098 57.08V57.15C77.7098 57.21 77.7098 57.15 77.7098 57.21V57.08V57.36C77.1421 56.8076 76.684 56.1527 76.3597 55.43C77.4498 52.88 78.8697 52.73 78.7597 52.68C78.6497 52.63 78.7598 52.46 78.6598 51.94C78.5095 51.5368 78.2411 51.1883 77.8897 50.94C77.6997 50.78 77.5397 50.67 77.5097 50.64C77.4097 50.58 77.4297 50.64 77.3097 50.57C77.2397 50.57 77.2097 50.5 77.2297 50.57H77.1497C77.0797 50.51 77.0898 50.57 77.0498 50.57H76.9598L77.0198 50.52C77.1398 50.4 77.3397 50.24 77.3397 50.24L77.2797 50.33L77.1097 50.49C77.2686 50.2953 77.4537 50.1237 77.6598 49.98L77.2897 50.44H77.3597L77.4497 50.37C77.5097 50.37 77.6498 50.06 77.7098 50.08L77.6197 50.22H77.6797V50.28C77.6797 50.28 77.8197 50.17 77.8597 50.12L77.9297 50.05C77.9947 50.1063 78.0744 50.1428 78.1595 50.1552C78.2446 50.1676 78.3314 50.1554 78.4098 50.12C78.8498 49.87 79.3098 49.83 79.1898 49.37C78.9398 48.37 77.5998 47.89 77.5998 47.89L77.2197 47.76L76.9197 47.92C76.0897 48.72 75.3898 49.36 74.7998 49.92C74.5798 48.27 74.5397 46.99 74.5297 46.85C74.5297 46.49 73.4797 45.9 72.7597 45.54C72.0397 45.18 71.7597 46.36 71.7597 46.36L71.4898 47.47C71.7121 47.1007 71.9847 46.7642 72.2998 46.47C72.3257 46.5382 72.3457 46.6084 72.3597 46.68C72.3671 46.739 72.384 46.7964 72.4098 46.85C72.4098 46.91 72.4098 47.01 72.4098 47.02C72.4098 47.03 72.4098 47.13 72.4098 47.22C72.4098 47.31 72.4598 47.39 72.4098 47.44V47.59L72.4598 48.01V47.86V48.58V48.43L72.5097 47.97V48L72.4398 48.76V48.82L72.5397 47.95L72.5897 48.27V48.38V48.3C72.7197 49.05 72.8698 49.95 73.0498 50.9L72.7398 51.12H72.5397C72.4697 51.12 72.2497 51.39 72.1898 51.35L72.3298 51.23H72.2597V51.16H72.3198C72.3198 51.16 72.1598 51.24 72.0998 51.27L71.9797 51.35C71.9797 51.35 71.9797 51.35 71.9197 51.43H71.8498C71.7952 51.4027 71.7526 51.3565 71.7297 51.3C71.7085 51.1944 71.7085 51.0856 71.7297 50.98C71.8138 50.4787 72.0855 50.0282 72.4898 49.72C72.4898 49.72 70.6497 51.06 70.6898 52.09L70.4898 51.94C70.0198 51.87 69.3597 52.38 68.6997 53.08C68.6687 52.7741 68.6687 52.4659 68.6997 52.16C69.1492 51.7847 69.6311 51.45 70.1397 51.16C70.2885 51.0691 70.429 50.9653 70.5597 50.85C71.1029 50.4727 71.6746 50.1383 72.2698 49.85C71.2698 48.24 70.6397 48.7 70.6397 48.7C70.6397 48.7 69.6397 49.33 69.5297 49.37C69.4197 49.41 69.3497 49.67 69.3298 49.78C69.1968 49.9554 69.0422 50.1133 68.8697 50.25C68.9012 49.4429 69.0015 48.64 69.1697 47.85C68.9784 47.3998 68.6199 47.0414 68.1697 46.85C67.8897 46.73 67.3097 46.57 67.0597 46.85C66.8097 47.13 67.0097 47.1 66.8397 47.46C66.7424 47.6603 66.6215 47.8483 66.4797 48.02C66.524 47.9771 66.5641 47.9303 66.5998 47.88C66.9279 47.6349 67.2922 47.4426 67.6797 47.31C67.9297 48.03 67.5097 48.78 67.4497 50.03C67.4497 50.65 67.1997 52.03 67.1097 52.76L66.8397 53.03L66.9997 52.91C67.0276 52.8716 67.0614 52.8378 67.0998 52.81V52.89L66.8198 53.09L65.6097 54.32C65.5441 54.3318 65.4803 54.352 65.4197 54.38C65.4791 55.4716 65.3815 56.5661 65.1298 57.63C65.0547 57.8914 65.0547 58.1686 65.1298 58.43C65.2017 58.6512 65.333 58.8483 65.5094 59C65.6857 59.1516 65.9003 59.252 66.1298 59.29C66.3492 59.315 66.5712 59.2768 66.7698 59.18C66.8504 58.7719 66.874 58.3546 66.8397 57.94C67.0259 57.9602 67.2136 57.9602 67.3997 57.94C67.3997 57.94 69.2797 56.94 69.4697 56.78C69.6475 56.696 69.8435 56.6582 70.0397 56.67L69.8997 56.81C69.8283 56.8681 69.7615 56.9316 69.6997 57C69.6197 57.08 69.4898 57.12 69.4898 57.2C69.4898 57.28 69.3698 57.34 69.2497 57.42C69.1297 57.5 69.0497 57.61 68.9797 57.62L68.7998 57.77L68.2797 58.18H68.2197L68.4197 58.06L67.8897 58.46L67.5097 58.7L67.7197 58.6L68.3198 58.23H68.2398L67.2398 58.83L67.1797 58.92L68.3198 58.23L68.8298 57.9H68.7597L68.4997 58.07C68.3276 58.2255 68.14 58.3629 67.9398 58.48L67.7698 58.59C67.7698 58.59 67.7697 58.59 67.6997 58.59L68.0998 58.34L68.3097 58.2C69.6197 57.2 70.5297 56.62 70.9697 56.34C71.0686 56.3581 71.1656 56.3849 71.2597 56.42C71.3797 56.42 71.5297 56.23 71.5297 56.23C71.5107 56.0246 71.4772 55.8208 71.4297 55.62C71.3697 55.32 70.8597 54.88 70.4297 54.62C70.6717 54.2955 70.954 54.0032 71.2698 53.75V53.8L71.1598 53.88L71.5198 53.56H71.5698C71.5698 53.56 71.5698 53.62 71.5698 53.67L71.3097 53.93H71.4398L71.5297 53.82C71.5297 53.82 71.6097 53.75 71.6397 53.76L71.5698 53.86V53.92C71.6198 53.92 71.6797 53.86 71.7197 53.83L71.7998 53.77C71.7998 53.77 71.7998 53.77 71.7998 53.69V53.74C71.8423 53.6767 71.8791 53.6098 71.9098 53.54C71.9367 53.4756 71.9568 53.4086 71.9697 53.34C71.9697 53.26 71.9697 53.18 72.0297 53.17V53.4H71.9697C71.9743 53.4432 71.9743 53.4868 71.9697 53.53C71.9956 53.4945 72.0127 53.4534 72.0198 53.41C72.0198 53.31 71.8597 53.14 71.6497 52.95C71.8011 52.9499 71.952 52.9331 72.0998 52.9L72.2398 52.82H72.3597C72.3638 52.8002 72.3638 52.7798 72.3597 52.76L73.3597 52.12C73.5498 53.03 73.7698 53.96 74.0198 54.83C74.0142 54.8426 74.0114 54.8562 74.0114 54.87C74.0114 54.8838 74.0142 54.8974 74.0198 54.91C73.8598 54.98 73.8597 55.1 73.6997 55.21C73.5397 55.32 73.4298 55.46 73.3198 55.5C73.2098 55.54 73.3198 55.5 73.3198 55.56L73.0698 55.76C72.8298 55.95 72.5897 56.14 72.3397 56.32L72.2497 56.38L72.5297 56.22L71.7597 56.75L71.2197 57.08L71.5097 56.95L72.3798 56.45L72.2698 56.52C71.7897 56.8 71.3098 57.07 70.8298 57.33L70.7398 57.44C71.2998 57.15 71.8497 56.84 72.3997 56.52L73.1298 56.06L72.9697 56.19L72.6598 56.38C72.4576 56.6049 72.2368 56.8123 71.9997 57L71.7597 57.14H71.6598L71.9997 57C71.5898 57.27 71.2098 57.49 70.8798 57.67C69.2798 58.52 67.4597 59.15 67.4797 59.22C67.4997 59.29 67.6798 59.22 67.7098 59.22C69.3498 58.84 70.8298 59.15 72.7797 58.28C73.5461 57.9225 74.2514 57.4467 74.8697 56.87C75.0625 57.3626 75.3037 57.835 75.5897 58.28C76.5397 59.71 78.3597 61.74 79.7998 61.42C80.2097 61.33 80.6998 61.31 81.4098 61.22L80.8397 60.16ZM70.0597 50.1C70.3173 50.1065 70.5743 50.1266 70.8298 50.16L70.2297 50.88C69.8442 51.2225 69.4006 51.4935 68.9197 51.68C68.9197 51.41 68.9697 51.13 68.9997 50.84C69.0957 50.6343 69.2443 50.4576 69.4304 50.3276C69.6165 50.1977 69.8336 50.1192 70.0597 50.1ZM66.5498 54.1C66.5498 54.1 66.6397 54 66.6497 53.96C66.6597 53.92 66.7897 53.87 66.7597 53.81C66.7297 53.75 66.8197 53.7 66.8897 53.65C66.9597 53.6 66.9997 53.51 67.0597 53.5L67.1697 53.4L67.2698 53.3V53.36C67.2698 53.36 67.6798 54.08 67.8198 54.36C67.4998 54.77 67.2097 55.17 66.9797 55.5C66.9649 55.5099 66.9475 55.5152 66.9297 55.5152C66.9119 55.5152 66.8946 55.5099 66.8798 55.5C66.8798 55.5 66.7997 55.5 66.8097 55.5H66.7297C66.7297 55.5 66.6698 55.5 66.6298 55.5C66.5473 55.1977 66.4471 54.9005 66.3298 54.61C66.3348 54.5501 66.3348 54.4899 66.3298 54.43C66.3997 54.36 66.4697 54.2 66.5498 54.12V54.1ZM67.1898 56.65C67.0697 56.65 66.8997 56.21 66.8298 56.01C67.5152 55.2704 68.2723 54.6005 69.0897 54.01L69.0097 54.09L68.7197 54.4H68.6697L68.8198 54.32L68.4898 54.61L68.2398 54.78L68.3997 54.73L68.8298 54.49H68.7797L68.0698 54.89V54.95L68.8897 54.5L69.2398 54.27L69.7297 53.73C69.7297 53.73 69.7298 53.87 69.6598 53.9C69.2772 54.3969 68.9674 54.9457 68.7398 55.53C68.3394 56.047 67.8025 56.4418 67.1898 56.67V56.65ZM76.6997 49.92L76.5698 50.12L76.4497 50.37L76.2597 50.54L75.9398 50.83L76.7197 50.23L75.7197 51.01V51.08L76.7197 50.24L76.9898 50.01C76.9898 50.01 76.6497 50.42 76.5798 50.48L76.0597 50.92L76.7098 50.39C76.7098 50.39 76.7098 50.52 76.7098 50.57C76.7098 50.62 76.7098 50.63 76.7098 50.67C76.7098 50.71 76.6398 50.67 76.7098 50.77C76.7798 50.87 76.7098 50.85 76.7098 50.88C76.7098 50.91 76.7098 50.98 76.6298 50.97V51.04L76.4797 51.22H76.5597C76.5044 51.2753 76.4441 51.3255 76.3798 51.37L76.2398 51.44H76.3298L76.5798 51.35C76.4464 51.4088 76.3095 51.4589 76.1697 51.5C76.3314 51.4583 76.4888 51.4014 76.6397 51.33C76.7118 51.2997 76.7791 51.2593 76.8397 51.21L76.7398 51.27C76.7398 51.33 76.5997 51.41 76.5397 51.44H76.4797L76.6497 51.37H76.7297C76.8288 51.3195 76.9226 51.2592 77.0097 51.19L76.8798 51.27L77.0397 51.13C76.8697 51.45 76.6797 51.78 76.4697 52.13C76.2598 52.48 76.0697 52.73 75.8697 53.01L75.6997 53.12C75.4491 52.3098 75.2488 51.4849 75.0998 50.65L76.6997 49.92Z" fill="white"/>
<path fill-rule="evenodd" clip-rule="evenodd" d="M75.9097 46.87L75.6397 47.0999H75.7497L75.4797 47.3099L75.2697 47.43H75.3897L75.7297 47.2799C75.5415 47.3598 75.3579 47.45 75.1797 47.55V47.62C75.3835 47.5046 75.5939 47.4011 75.8097 47.3099L76.0897 47.1699H76.0397L75.8997 47.2399C75.8997 47.2999 75.6997 47.4 75.6197 47.44H75.5397L75.7597 47.33L75.8697 47.2699L76.2597 47.08H76.1197L75.9497 47.1699L76.5197 46.83H76.5897C76.5897 46.83 76.5897 46.9 76.4997 46.94L76.0797 47.2099H76.2497C76.3097 47.2099 76.4997 47.01 76.5497 47.05L76.4297 47.1399H76.4897V47.2099H76.4397C76.4397 47.2099 76.5897 47.2099 76.6397 47.1399L76.7397 47.0899C76.7897 47.0899 76.7397 47.0899 76.8197 47.0199L76.9497 46.91C77.1806 47.0143 77.4177 47.1045 77.6597 47.18C77.9097 47.25 78.5097 46.6799 78.4197 46.6299C78.2344 46.3991 78.1044 46.1288 78.0397 45.8399C78.0397 45.6899 77.1097 45.1 77.0397 45.19C76.3821 45.3472 75.7135 45.4542 75.0397 45.51C74.8019 45.58 74.583 45.7031 74.3997 45.87L75.8497 46.47L75.9097 46.87Z" fill="white"/>
<path fill-rule="evenodd" clip-rule="evenodd" d="M62.8497 57.87C62.8497 57.77 62.8497 57.65 62.8497 57.61C62.8609 57.5606 62.8609 57.5094 62.8497 57.46C62.8497 57.46 62.8497 57.36 62.8497 57.31C62.8497 57.26 62.8497 57.07 62.8497 57.01V56L62.7997 56.21C62.7997 56 62.7997 55.8 62.8497 55.59L62.9097 55.18L62.8497 55.39L62.7297 55.97V55.87L62.9397 54.87V54.77C62.8697 55.09 62.7997 55.42 62.7397 55.77C62.735 55.6767 62.735 55.5833 62.7397 55.49V55.4C62.7397 55.4 62.7397 55.4 62.7397 55.33V55.44C62.4797 53.98 62.1897 52.6 62.1897 52.6L61.7797 50.29C61.7797 50.29 61.7797 51.46 61.6297 52.8V53.05L61.5097 53.8V53.71C61.5797 53.29 61.6297 52.88 61.6797 52.46V52.36C61.6197 52.84 61.5497 53.36 61.4797 53.78C61.4797 54 61.4297 54.22 61.3997 54.44V54.02C61.3769 53.7739 61.3769 53.5261 61.3997 53.28V53.06C61.3997 53.06 61.3997 53.06 61.3997 52.98L61.3297 53.49V53.75C61.3297 54.05 61.2597 54.36 61.2197 54.66V54.31L61.2697 53.89C61.2697 54.36 61.1897 54.83 61.1397 55.3V55.53C61.1397 55.44 61.1397 55.4 61.1397 55.25C61.1397 54.89 61.1997 54.54 61.2197 54.19L61.1697 54.3V54.61C61.1697 54.75 61.1697 55.28 61.0897 55.32V55.01V55.15L60.4997 55V54.89C60.4497 54.89 60.4397 55.19 60.4197 55.31V55.53C60.4197 55.64 60.4197 55.65 60.4197 55.75V55.65V56.12C60.4139 56.1631 60.4139 56.2069 60.4197 56.25C60.2885 56.4172 60.1112 56.5423 59.9097 56.61C58.9101 56.8597 57.8748 56.9341 56.8497 56.83C57.0901 56.5105 57.3105 56.1766 57.5097 55.83L57.6897 55.49L57.8597 55.14C57.8391 55.1712 57.8223 55.2048 57.8097 55.24L57.6397 55.58C57.5443 55.8541 57.4167 56.1159 57.2597 56.36L57.1297 56.58C57.1118 56.6081 57.0879 56.632 57.0597 56.65C57.1697 56.48 57.2797 56.31 57.3797 56.14L57.5297 55.87C57.6964 55.5567 57.8564 55.2233 58.0097 54.87L57.9397 55.03L57.8497 55.25C57.7797 55.4 57.6997 55.55 57.6197 55.69C57.8597 55.19 58.0697 54.69 58.2597 54.15L58.3197 53.97V53.89C58.3197 53.99 58.3197 54.05 58.2597 54.22C58.1273 54.6212 57.9737 55.015 57.7997 55.4L57.8797 55.29C57.9267 55.2189 57.9701 55.1455 58.0097 55.07V54.96C58.0097 54.88 58.1097 54.69 58.1697 54.51C58.1999 54.3841 58.2542 54.2652 58.3297 54.16C58.3297 54.28 58.2497 54.4 58.2197 54.52L58.2897 54.35V54.43L58.2397 54.56C58.2997 54.56 58.3997 54.22 58.4397 54.09C58.4797 53.96 58.5097 53.92 58.5397 53.83C58.5697 53.74 58.5397 53.68 58.5997 53.57V53.51C58.5997 53.51 58.5997 53.51 58.6497 53.51C58.6546 53.5499 58.6546 53.5901 58.6497 53.63L58.7697 53.06V53C58.8014 52.8349 58.8215 52.6679 58.8297 52.5C58.8303 52.3513 58.8505 52.2034 58.8897 52.06V52C58.9281 51.9199 58.9583 51.8362 58.9797 51.75C59.0697 51.38 58.6097 50.91 58.1397 50.54C58.2197 50.46 58.4397 50.32 58.5797 50.2C58.632 50.1414 58.6927 50.0909 58.7597 50.05H58.9797C59.1342 50.0399 59.2878 50.0198 59.4397 49.99H59.0597C59.2968 49.9507 59.5284 49.8835 59.7497 49.79H59.8197C59.7697 49.79 59.7697 49.85 59.7097 49.89C59.6497 49.93 59.3697 50.02 59.1797 50.07H59.4197L59.6097 49.99C59.6797 49.99 59.7497 49.93 59.7797 49.99L59.6297 50.06H59.6997V50.13H59.6397C59.6397 50.13 59.7997 50.13 59.8597 50.13H59.9697C60.0197 50.13 59.9697 50.13 60.0597 50.07L60.2697 49.93C60.3397 49.93 60.5097 49.67 60.5797 49.69L60.6897 49.56C60.875 49.4207 61.0143 49.2292 61.0897 49.01C61.2497 48.55 58.9297 47.01 58.9297 47.01H58.6097C58.5738 47.0059 58.5375 47.0111 58.5042 47.0251C58.4709 47.0391 58.4418 47.0615 58.4197 47.09L58.0997 47.55L56.8997 48.12L56.5297 48.3H56.2997C56.0101 48.2695 55.7179 48.3252 55.4597 48.46C54.6897 48.93 53.5597 49.46 53.1297 49.68C53.2447 49.5631 53.3721 49.4591 53.5097 49.37C53.6697 49.27 53.7497 49.21 53.9097 49.12C54.1523 48.9666 54.386 48.7997 54.6097 48.62C54.8097 48.5 55.0697 48.36 55.2597 48.22C55.5825 48.0212 55.9164 47.8409 56.2597 47.68C56.6644 47.576 57.0189 47.3314 57.2597 46.99C57.5297 46.67 56.1297 45.75 56.1297 45.75C54.3097 46.68 53.6597 46.29 53.6597 46.29C54.1301 46.8843 54.7469 47.3461 55.4497 47.63L54.3297 48.57L54.1597 48.71L53.6897 49.02L53.3497 49.24C53.2497 49.3 53.1497 49.34 53.0497 49.39L52.6297 49.66L52.8597 49.51L52.6297 49.65C52.4828 49.4002 52.263 49.2013 51.9997 49.08V47.37C51.9997 47.37 51.2097 45.85 50.5497 45.91C50.3946 45.9324 50.249 45.9983 50.1297 46.1C49.5797 46.51 49.0397 47.35 49.3697 47.18C49.3697 47.18 49.3697 47.18 49.3697 47.25C49.3516 47.2928 49.3281 47.3332 49.2997 47.37C49.3228 47.3746 49.3466 47.3746 49.3697 47.37C49.3988 47.3352 49.4256 47.2984 49.4497 47.26C49.4741 47.2191 49.5044 47.182 49.5397 47.15L49.4597 47.24L49.3997 47.34C49.3705 47.3895 49.3292 47.4308 49.2797 47.46C49.3463 47.4311 49.4022 47.3821 49.4397 47.32C49.4897 47.26 49.5297 47.18 49.5897 47.12V47.07H49.9997C49.9997 47.07 49.9997 47.13 49.9997 47.17L49.9397 47.28V47.35L50.0397 47.2C50.0368 47.1801 50.0368 47.1599 50.0397 47.14V47.08H50.1197H50.0597L50.1097 47.03H50.2397C50.1767 47.0558 50.1191 47.0931 50.0697 47.14H50.1297C50.1297 47.14 50.1797 47.14 50.2297 47.08C50.4616 47.7235 50.5997 48.3971 50.6397 49.08C50.1797 49.35 49.6397 49.61 49.2397 49.82V49.75L49.1297 49.85L49.3797 49.51L49.5697 49.3L49.4497 49.38L49.1097 49.7L49.6597 49.17V49.1L49.0297 49.69L48.7597 49.99L48.8897 49.85C48.8897 49.77 49.0797 49.57 49.1597 49.49L49.2397 49.39C49.2397 49.39 49.2397 49.39 49.2897 49.39L49.0697 49.6L48.9597 49.72L48.5797 50.13L48.6397 50.06L48.7097 49.97L48.8797 49.78L48.3497 50.44L48.2797 50.52C48.2797 50.52 48.2797 50.43 48.3497 50.35L48.7297 49.84H48.6597L48.5597 49.92C48.4997 49.98 48.3497 50.27 48.2797 50.25L48.3797 50.09L48.3197 50.16V50.1L48.3697 50.04C48.3197 50.04 48.2297 50.17 48.1797 50.22L48.0897 50.33C48.0397 50.33 48.0897 50.4 48.0197 50.44V50.37L47.8697 50.62C47.8697 50.62 47.8697 50.68 47.8097 50.73C47.7422 50.8062 47.6972 50.8997 47.6797 51L47.6097 51.2L47.6597 51.11C47.6546 51.133 47.6546 51.157 47.6597 51.18L47.7097 51.24H48.0497L47.9797 51.31H47.8697V51.37H47.9297C48.0197 51.43 48.0397 51.32 48.1497 51.37C48.2097 51.37 48.2397 51.43 48.2297 51.37H48.3197C48.3797 51.44 48.3797 51.37 48.4497 51.37C48.6585 51.4009 48.8688 51.4209 49.0797 51.43C49.0797 51.43 49.9297 51.11 50.8097 50.72C50.8097 51 50.8097 51.27 50.8097 51.54L50.3897 51.87L50.1497 52.07C49.859 52.3076 49.5819 52.5613 49.3197 52.83L49.4497 52.71C49.495 52.6433 49.5488 52.5828 49.6097 52.53L49.9997 52.18C49.6026 52.7209 49.2671 53.3045 48.9997 53.92L48.8697 54.08V54.14C48.9397 54.04 48.9297 53.98 49.0297 53.82C49.2964 53.4641 49.5907 53.1298 49.9097 52.82L49.7797 52.89L49.5797 53.07L49.4897 53.15C49.4197 53.22 49.2897 53.39 49.1697 53.54C49.0497 53.69 48.9397 53.85 48.8897 53.85L49.1197 53.52L48.9997 53.67V53.58L49.0997 53.46C49.0397 53.46 48.8297 53.76 48.7397 53.88L48.5697 54.11C48.4897 54.23 48.5097 54.25 48.4397 54.35C48.4397 54.35 48.4397 54.35 48.3797 54.35V54.23L48.0997 54.74V54.81C47.9728 55.0981 47.8292 55.3786 47.6697 55.65L47.5297 55.78C47.5297 55.78 47.3797 56.51 47.8397 56.66C48.2897 57.13 48.8397 57.66 49.3697 58.12C49.8075 58.5033 50.2648 58.8638 50.7397 59.2C50.4414 59.5163 50.1056 59.7951 49.7397 60.03C51.0991 59.7843 52.3631 59.1644 53.3897 58.24C54.3897 57.24 54.8997 54.74 54.9197 53.34C54.9259 53.3205 54.9259 53.2995 54.9197 53.28C54.9197 53.28 54.9897 53.28 54.9797 53.21C54.9697 53.14 54.9797 53.15 55.0397 53.14C55.0997 53.13 55.0897 53.07 55.1197 53.14L55.2597 53.03H55.1897L55.3897 52.93H55.4497C55.7966 52.724 56.1306 52.4969 56.4497 52.25C56.6897 54.15 54.9897 56.6 54.2897 57.25C53.9289 57.553 53.6446 57.9367 53.4597 58.37L54.3297 59.2C54.4764 59.2971 54.6461 59.3537 54.8217 59.3643C54.9972 59.3748 55.1725 59.3388 55.3297 59.26C55.4552 59.1892 55.559 59.0855 55.6297 58.96C59.2597 58.73 60.6297 59.89 60.6297 59.89C62.4297 60.28 62.5397 59.76 62.5797 59.34H62.6297C62.6997 59.34 62.7397 59.34 62.7097 59.34H62.7897C62.8797 59.34 62.8497 59.34 62.8697 59.18C62.8963 59.1121 62.9164 59.0417 62.9297 58.97C62.909 58.8051 62.879 58.6415 62.8397 58.48C62.901 58.2818 62.9045 58.0701 62.8497 57.87ZM56.8997 56.63C57.0597 56.39 57.2197 56.14 57.3597 55.89V55.99C57.1597 56.31 56.9597 56.63 56.7397 56.94L56.8297 56.77L56.8997 56.63ZM59.4197 50.13H59.2597C59.2597 50.13 59.1697 50.13 59.0997 50.13L59.3197 50.05H59.4997L59.4197 50.13ZM56.2597 48.69L54.4797 49.51C54.2297 49.62 53.9497 49.74 53.6297 49.86C53.9197 49.71 54.3297 49.5 54.7397 49.31C55.1497 49.12 55.8297 48.85 56.2597 48.69ZM52.4297 56.6L52.2197 56.87C52.1597 56.94 52.0897 57.01 52.0297 57.09V57C52.2097 56.79 52.4097 56.52 52.5097 56.41L52.4297 56.6ZM50.9997 52.32L50.4297 52.76L50.5197 52.68L51.0197 52.29L50.9997 52.32ZM52.0697 57.32L52.1897 57.18L52.0697 57.39V57.32ZM52.0697 57.22V57.29V57.12L52.3397 56.81L52.4597 56.65C52.3997 56.78 52.3297 56.9 52.2697 57.02C52.2082 57.101 52.1414 57.1778 52.0697 57.25V57.22ZM53.3497 54.07L53.2097 54.21C53.1406 54.3687 53.0837 54.5326 53.0397 54.7C53.0151 54.7982 53.0017 54.8988 52.9997 55C52.9997 55.1 52.8497 55.19 52.8997 55.26C52.9497 55.33 52.8997 55.43 52.7797 55.54C52.6597 55.65 52.6797 55.78 52.6097 55.82C52.5397 55.86 52.6097 55.82 52.6097 55.88L52.4997 56.08L52.1797 56.63V56.69L52.3297 56.52C52.2597 56.62 52.1897 56.72 52.1297 56.82L52.2697 52.01C52.4248 52.0587 52.5874 52.0791 52.7497 52.07C52.8501 52.0366 52.9422 51.982 53.0197 51.91C53.281 52.1571 53.468 52.4723 53.5597 52.82L53.6097 53.22C53.4697 53.55 53.4097 53.83 53.3497 54.1V54.07ZM49.8397 53.08L50.1297 52.82C50.3261 52.5925 50.5475 52.3879 50.7897 52.21L50.9897 52.04C50.9848 52.0899 50.9848 52.1401 50.9897 52.19L50.3697 52.66C50.1697 52.83 49.9697 53 49.7797 53.19L49.8397 53.08ZM49.9097 53.56C50.0764 53.36 50.2564 53.16 50.4497 52.96L50.5297 52.9L50.2897 53.08L50.9097 52.5C50.915 52.5966 50.915 52.6934 50.9097 52.79L49.8197 53.79L49.9097 53.56ZM50.0097 56.76C49.7497 56.85 49.5297 56.64 49.0097 56.5H49.0697L49.0097 56.41C48.9823 56.3767 48.9483 56.3494 48.9097 56.33C48.9461 56.336 48.9833 56.336 49.0197 56.33C49.0197 56.33 49.0897 56.19 49.1497 56.13C49.2097 56.07 49.2097 56.06 49.2197 56.02C49.2297 55.98 49.3297 56.02 49.2997 55.91C49.2697 55.8 49.2997 55.82 49.3897 55.79C49.4797 55.76 49.4697 55.67 49.5197 55.68L49.5997 55.6C49.6815 55.5215 49.7583 55.438 49.8297 55.35H49.7197L49.8297 55.21L49.9997 55L50.1597 54.83C50.4397 54.48 50.6697 54.18 50.7797 54.03C50.7097 54.48 50.6397 54.83 50.5997 55.03C50.4097 55.79 50.4297 56.64 49.9997 56.79L50.0097 56.76ZM54.5297 52.24C54.0509 51.9665 53.498 51.851 52.9497 51.91C53.035 51.8304 53.109 51.7396 53.1697 51.64C53.3797 51.26 57.3697 49.51 58.5397 49.72C58.5397 49.72 58.5397 49.83 58.5397 49.9C58.4994 50.064 58.4244 50.2175 58.3197 50.35C58.2426 50.4249 58.1506 50.4828 58.0497 50.52C57.9945 50.4732 57.9341 50.4329 57.8697 50.4H57.2397C56.9677 50.5404 56.7127 50.7115 56.4797 50.91C55.8686 51.426 55.2088 51.8814 54.5097 52.27L54.5297 52.24Z" fill="white"/>
<path d="M45.074 51.5096L39.5339 54.4243L39.8925 55.1058L45.4325 52.191L45.074 51.5096Z" fill="#007431"/>
<path d="M35.5674 50.9362L35.4941 48.9375L34.8146 48.9624L34.8879 50.9611L35.5674 50.9362Z" fill="#007431"/>
<path d="M52.5073 54.0393L47.0378 55.1938L47.1783 55.8592L52.6478 54.7046L52.5073 54.0393Z" fill="#007431"/>
<path d="M60.0697 52.4902H55.9697V53.1402H60.0697V52.4902Z" fill="#007431"/>
<path d="M75.8897 52.3101H73.2397V52.9501H75.8897V52.3101Z" fill="#007431"/>
<path d="M77.2061 55.8179L73.8308 58.1455L74.2282 58.7218L77.6035 56.3942L77.2061 55.8179Z" fill="#007431"/>
<path d="M25.805 48.9975L22.7288 48.8066L22.6935 49.3755L25.7697 49.5664L25.805 48.9975Z" fill="#007431"/>
<path d="M21.9597 50.0601H19.1697V50.5401H21.9597V50.0601Z" fill="#007431"/>
<path d="M26.936 53.7837L22.2488 56.7969L22.5728 57.3009L27.26 54.2877L26.936 53.7837Z" fill="#007431"/>
</svg>
