<svg width="22" height="30" viewBox="0 0 22 30" fill="none" xmlns="http://www.w3.org/2000/svg">
<path d="M13.2599 20.4998C11.046 21.0258 8.71644 20.73 6.70428 19.6673C4.69213 18.6046 3.13431 16.8474 2.32049 14.7223C1.50668 12.5973 1.49225 10.249 2.27984 8.11414C3.06744 5.97924 4.60349 4.20298 6.60242 3.1156C8.60134 2.02822 10.9271 1.70371 13.1473 2.20241C15.3676 2.70111 17.3311 3.98908 18.673 5.82686C20.0149 7.66464 20.6438 9.92718 20.4427 12.1938C20.2417 14.4605 19.2244 16.577 17.58 18.1498" stroke="#0076B0" stroke-width="2.19" stroke-miterlimit="10" stroke-linecap="round"/>
<path d="M11.0201 17.75C14.5989 17.75 17.5001 14.8489 17.5001 11.2701C17.5001 7.69124 14.5989 4.79004 11.0201 4.79004C7.44128 4.79004 4.54004 7.69124 4.54004 11.2701C4.54004 14.8489 7.44128 17.75 11.0201 17.75Z" fill="#006FB1" stroke="#0076B0" stroke-width="0.66" stroke-miterlimit="10"/>
<path d="M17.2 22.4302L20.09 27.4302" stroke="#0076B0" stroke-width="3.65" stroke-miterlimit="10" stroke-linecap="round"/>
</svg>
