<svg width="83" height="84" viewBox="0 0 83 84" fill="none" xmlns="http://www.w3.org/2000/svg">
<path d="M41.71 83.3501C64.4917 83.3501 82.96 64.8818 82.96 42.1001C82.96 19.3184 64.4917 0.850098 41.71 0.850098C18.9282 0.850098 0.459961 19.3184 0.459961 42.1001C0.459961 64.8818 18.9282 83.3501 41.71 83.3501Z" fill="white"/>
<path d="M29.6101 51.6001C39.2696 51.6001 47.1001 44.5531 47.1001 35.8601C47.1001 27.1671 39.2696 20.1201 29.6101 20.1201C19.9506 20.1201 12.1201 27.1671 12.1201 35.8601C12.1201 44.5531 19.9506 51.6001 29.6101 51.6001Z" fill="#D01D42"/>
<path d="M31.14 67.15C30.9716 67.4122 30.7401 67.6279 30.4667 67.7772C30.1932 67.9266 29.8865 68.0049 29.575 68.0049C29.2634 68.0049 28.9568 67.9266 28.6833 67.7772C28.4099 67.6279 28.1784 67.4122 28.01 67.15L21.9399 56.65L14.3 43.4399H44.85L37.21 56.65L31.14 67.15Z" fill="#D01D42"/>
<path d="M29.6101 46.9601C34.8182 46.9601 39.0402 42.7382 39.0402 37.5302C39.0402 32.3221 34.8182 28.1001 29.6101 28.1001C24.4021 28.1001 20.1802 32.3221 20.1802 37.5302C20.1802 42.7382 24.4021 46.9601 29.6101 46.9601Z" fill="white"/>
<path d="M61.9 35.05C67.5002 35.05 72.04 30.9624 72.04 25.92C72.04 20.8777 67.5002 16.79 61.9 16.79C56.2999 16.79 51.76 20.8777 51.76 25.92C51.76 30.9624 56.2999 35.05 61.9 35.05Z" fill="#B32732"/>
<path d="M62.79 44.0599C62.6936 44.2128 62.56 44.3386 62.4017 44.4259C62.2435 44.5132 62.0657 44.5591 61.885 44.5591C61.7043 44.5591 61.5265 44.5132 61.3683 44.4259C61.21 44.3386 61.0764 44.2128 60.98 44.0599L57.46 37.9698L53.03 30.3198H70.74L66.3199 37.9698L62.79 44.0599Z" fill="#B32732"/>
<path d="M61.9001 32.3599C64.9211 32.3599 67.3701 29.9109 67.3701 26.8899C67.3701 23.8689 64.9211 21.4199 61.9001 21.4199C58.8791 21.4199 56.4302 23.8689 56.4302 26.8899C56.4302 29.9109 58.8791 32.3599 61.9001 32.3599Z" fill="white"/>
<path d="M36.1699 71.21C40.5399 71.9 46.4498 71.02 48.9698 62.51C51.4898 54 55.8299 50.08 58.8599 48.27" stroke="#AA2831" stroke-width="1.22" stroke-miterlimit="10" stroke-linecap="round" stroke-dasharray="3.68 3.68"/>
<path d="M29.8901 73C29.8901 73 47.0001 81.56 51.7501 66C56.7501 49.55 66.5502 48.53 66.5502 48.53" stroke="#C42040" stroke-width="1.22" stroke-miterlimit="10" stroke-linecap="round"/>
</svg>
