<svg width="1920" height="300" viewBox="0 0 1920 300" fill="none" xmlns="http://www.w3.org/2000/svg">
<path d="M1920 0H0V187H1920V0Z" fill="#F7F8F8"/>
<path fill-rule="evenodd" clip-rule="evenodd" d="M162.02 78.06L162.03 78.07L162.05 78.04L162.02 78.06Z" fill="white"/>
<path fill-rule="evenodd" clip-rule="evenodd" d="M164.09 79.66C164.09 79.73 163.84 79.9 163.74 79.96L163.63 80.03C163.621 80.0344 163.61 80.0367 163.6 80.0367C163.59 80.0367 163.579 80.0344 163.57 80.03L163.86 79.86L164 79.77L164.26 79.48L164.09 79.66Z" fill="white"/>
<path fill-rule="evenodd" clip-rule="evenodd" d="M164.32 79.51L164.31 79.5L164.29 79.53L164.32 79.51Z" fill="white"/>
<path fill-rule="evenodd" clip-rule="evenodd" d="M148.46 74.3599L148.75 74.1699L148.26 74.4699H148.34L148.46 74.3599Z" fill="#231815"/>
<path fill-rule="evenodd" clip-rule="evenodd" d="M161.68 77.5298V77.5398L161.71 77.5098L161.68 77.5298Z" fill="#231815"/>
<path d="M1920 187H1700V300H1920V187Z" fill="white"/>
</svg>
