<svg width="25" height="32" viewBox="0 0 25 32" fill="none" xmlns="http://www.w3.org/2000/svg">
<path d="M16.5162 17.7526V18.1521C16.516 18.1589 16.5192 18.1656 16.5252 18.171C16.5312 18.1763 16.5396 18.1799 16.549 18.1812C17.0164 18.2268 17.4902 18.2268 17.9576 18.1812C17.9675 18.1803 17.9765 18.1769 17.983 18.1715C17.9895 18.1661 17.9931 18.1592 17.993 18.1521V17.7526C17.993 17.7484 17.9918 17.7443 17.9895 17.7405C17.9872 17.7367 17.9837 17.7333 17.9794 17.7305C17.9751 17.7278 17.9701 17.7257 17.9646 17.7245C17.9591 17.7232 17.9533 17.7229 17.9475 17.7234C17.4869 17.769 17.0197 17.769 16.5591 17.7234C16.5535 17.7228 16.5478 17.7232 16.5424 17.7244C16.537 17.7257 16.5321 17.7278 16.528 17.7306C16.5239 17.7334 16.5207 17.7368 16.5186 17.7406C16.5166 17.7444 16.5157 17.7485 16.5162 17.7526Z" fill="#00893D"/>
<path d="M16.5162 21.691V22.0905C16.516 22.0973 16.5192 22.104 16.5252 22.1094C16.5312 22.1147 16.5396 22.1184 16.549 22.1197C17.0164 22.1653 17.4902 22.1653 17.9576 22.1197C17.9675 22.1188 17.9765 22.1153 17.983 22.1099C17.9895 22.1045 17.9931 22.0976 17.993 22.0905V21.691C17.993 21.6868 17.9918 21.6827 17.9895 21.6789C17.9872 21.6751 17.9837 21.6717 17.9794 21.6689C17.9751 21.6662 17.9701 21.6641 17.9646 21.6629C17.9591 21.6617 17.9533 21.6613 17.9475 21.6618C17.4869 21.7074 17.0197 21.7074 16.5591 21.6618C16.5535 21.6612 16.5478 21.6616 16.5424 21.6628C16.537 21.6641 16.5321 21.6662 16.528 21.669C16.5239 21.6718 16.5207 21.6752 16.5186 21.679C16.5166 21.6828 16.5157 21.6869 16.5162 21.691Z" fill="#00893D"/>
<path d="M16.559 18.2159C16.5535 18.2155 16.5479 18.2165 16.5427 18.2189C16.5375 18.2213 16.5328 18.225 16.5288 18.2299C16.5247 18.2347 16.5215 18.2406 16.5194 18.2471C16.5172 18.2536 16.516 18.2606 16.5161 18.2677V19.592C16.516 19.6047 16.5195 19.617 16.526 19.6266C16.5326 19.6361 16.5416 19.6423 16.5514 19.6439C17.0188 19.7086 17.4903 19.7086 17.9576 19.6439C17.9675 19.6423 17.9765 19.6361 17.983 19.6266C17.9895 19.617 17.9931 19.6047 17.993 19.592V18.2677C17.993 18.2603 17.9918 18.253 17.9895 18.2463C17.9872 18.2395 17.9837 18.2335 17.9794 18.2286C17.9751 18.2237 17.97 18.22 17.9646 18.2178C17.9591 18.2156 17.9532 18.215 17.9475 18.2159C17.4861 18.2807 17.0204 18.2807 16.559 18.2159Z" fill="#00893D"/>
<path d="M6.67026 17.7528V18.1521C6.67079 18.1597 6.67465 18.1668 6.68111 18.1722C6.68758 18.1776 6.6962 18.1808 6.70532 18.1813C7.17266 18.2268 7.6448 18.2268 8.11213 18.1813C8.12143 18.1813 8.13035 18.1782 8.13692 18.1727C8.1435 18.1672 8.14719 18.1598 8.14719 18.1521V17.7528C8.14696 17.7484 8.1456 17.744 8.1432 17.7401C8.14079 17.7362 8.1374 17.7327 8.13324 17.7299C8.12909 17.7272 8.12428 17.7252 8.11913 17.7241C8.11397 17.723 8.1086 17.7228 8.10336 17.7236C7.64263 17.7692 7.17702 17.7692 6.71628 17.7236C6.71093 17.7228 6.70544 17.723 6.70017 17.7241C6.69489 17.7251 6.68994 17.7271 6.68562 17.7299C6.6813 17.7326 6.6777 17.736 6.67506 17.74C6.67242 17.7439 6.67079 17.7483 6.67026 17.7528Z" fill="#00893D"/>
<path d="M6.71409 18.2159C6.7089 18.215 6.70365 18.2156 6.69863 18.2177C6.69361 18.2199 6.68893 18.2234 6.68485 18.2283C6.68077 18.2331 6.67739 18.2391 6.67488 18.2458C6.67238 18.2526 6.67081 18.26 6.67026 18.2677V19.5921C6.67082 19.6061 6.67499 19.6193 6.68192 19.6289C6.68884 19.6385 6.698 19.6439 6.70751 19.6439C7.17469 19.7086 7.64495 19.7086 8.11213 19.6439C8.12126 19.6431 8.12988 19.6374 8.13634 19.6278C8.14281 19.6183 8.14667 19.6055 8.14719 19.5921V18.2677C8.14665 18.26 8.14508 18.2526 8.14257 18.2458C8.14007 18.2391 8.13668 18.2331 8.1326 18.2283C8.12852 18.2234 8.12384 18.2199 8.11882 18.2177C8.1138 18.2156 8.10855 18.215 8.10336 18.2159C7.64131 18.2807 7.17614 18.2807 6.71409 18.2159Z" fill="#00893D"/>
<path d="M16.5868 22.1544C16.5779 22.1532 16.5689 22.1542 16.5603 22.1572C16.5518 22.1603 16.5439 22.1654 16.5372 22.1721C16.5305 22.1789 16.5252 22.1873 16.5215 22.1966C16.5179 22.2059 16.5161 22.216 16.5161 22.2262V23.9997C16.5154 24.0171 16.5204 24.0341 16.5302 24.0474C16.5401 24.0608 16.554 24.0693 16.5691 24.0715C17.0232 24.1404 17.4833 24.1404 17.9374 24.0715C17.953 24.07 17.9675 24.0617 17.9779 24.0484C17.9882 24.035 17.9936 24.0175 17.9929 23.9997V22.2377C17.993 22.2275 17.9911 22.2174 17.9875 22.2081C17.9839 22.1987 17.9785 22.1904 17.9718 22.1836C17.9652 22.1768 17.9573 22.1717 17.9487 22.1687C17.9402 22.1656 17.9311 22.1647 17.9222 22.1659C17.4786 22.2281 17.0296 22.2243 16.5868 22.1544Z" fill="#00893D"/>
<path d="M6.67038 21.7196V22.5179C6.66961 22.5307 6.67259 22.5434 6.6789 22.5542C6.68521 22.565 6.69451 22.5733 6.70544 22.5778C7.17056 22.6689 7.64677 22.6689 8.11189 22.5778C8.12303 22.5736 8.13254 22.5654 8.1389 22.5545C8.14526 22.5437 8.14809 22.5308 8.14694 22.5179V21.7196C8.14694 21.6837 8.12723 21.6573 8.10313 21.6621C7.64463 21.7532 7.17489 21.7532 6.71639 21.6621C6.69229 21.6573 6.67038 21.6837 6.67038 21.7196Z" fill="#00893D"/>
<path d="M6.74074 22.6472C6.70352 22.6472 6.67067 22.6868 6.67067 22.7518V25.4143C6.66883 25.4376 6.67326 25.461 6.68324 25.4806C6.69321 25.5001 6.70811 25.5147 6.72542 25.5217C7.17729 25.6263 7.63997 25.6263 8.09184 25.5217C8.10939 25.5152 8.12454 25.5007 8.13458 25.4811C8.14461 25.4614 8.14887 25.4377 8.14659 25.4143V22.7518C8.14659 22.6868 8.11374 22.6388 8.07652 22.6472C7.63437 22.7433 7.18289 22.7433 6.74074 22.6472Z" fill="#00893D"/>
<path d="M11.5929 17.7525V18.152C11.5942 18.1601 11.5996 18.1675 11.6081 18.1729C11.6166 18.1783 11.6276 18.1813 11.639 18.1812C12.263 18.2268 12.892 18.2268 13.5161 18.1812C13.5274 18.1813 13.5384 18.1783 13.547 18.1729C13.5555 18.1675 13.5609 18.1601 13.5621 18.152V17.7525C13.5621 17.7343 13.534 17.7215 13.5032 17.7233C12.8878 17.7689 12.2673 17.7689 11.6518 17.7233C11.6211 17.7215 11.5929 17.7343 11.5929 17.7525Z" fill="#00893D"/>
<path d="M11.6519 18.2158C11.6211 18.2158 11.5929 18.2384 11.5929 18.2676V19.592C11.5948 19.6066 11.6007 19.6199 11.6096 19.6294C11.6186 19.6389 11.6299 19.644 11.6416 19.6439C12.2654 19.7086 12.8923 19.7086 13.516 19.6439C13.5272 19.6433 13.538 19.6378 13.5464 19.6284C13.5548 19.6189 13.5604 19.6061 13.5621 19.592V18.2676C13.5621 18.2384 13.5339 18.2125 13.5032 18.2158C12.8871 18.2804 12.2679 18.2804 11.6519 18.2158Z" fill="#00893D"/>
<path d="M11.5931 21.7196V22.5179C11.5927 22.5316 11.5971 22.545 11.6054 22.5559C11.6138 22.5668 11.6256 22.5746 11.639 22.5778C12.2613 22.6689 12.8937 22.6689 13.516 22.5778C13.5294 22.5746 13.5413 22.5668 13.5496 22.5559C13.5579 22.545 13.5623 22.5316 13.5619 22.5179V21.7196C13.5627 21.7116 13.5617 21.7036 13.5589 21.6961C13.5561 21.6886 13.5516 21.6818 13.5458 21.6762C13.54 21.6707 13.533 21.6665 13.5253 21.6641C13.5177 21.6616 13.5095 21.6609 13.5016 21.6621C12.8881 21.7532 12.2645 21.7532 11.6511 21.6621C11.6433 21.6613 11.6354 21.6623 11.628 21.6649C11.6207 21.6676 11.614 21.6718 11.6085 21.6773C11.6029 21.6828 11.5987 21.6894 11.596 21.6967C11.5934 21.7041 11.5924 21.7119 11.5931 21.7196Z" fill="#00893D"/>
<path d="M11.6606 22.6468C11.6521 22.6456 11.6435 22.6465 11.6353 22.6494C11.6271 22.6523 11.6195 22.6571 11.6131 22.6635C11.6067 22.6699 11.6016 22.6777 11.5981 22.6865C11.5946 22.6953 11.5928 22.7048 11.5929 22.7144V26.9648C11.5929 26.9818 11.5986 26.9983 11.6089 27.0108C11.6192 27.0233 11.6334 27.0311 11.6485 27.0324C12.2667 27.0919 12.8883 27.0919 13.5065 27.0324C13.5217 27.0311 13.5359 27.0233 13.5462 27.0108C13.5565 26.9983 13.5622 26.9818 13.5621 26.9648V22.7144C13.5622 22.7048 13.5604 22.6953 13.557 22.6865C13.5535 22.6777 13.5484 22.6699 13.5419 22.6635C13.5355 22.6571 13.528 22.6523 13.5198 22.6494C13.5116 22.6465 13.5029 22.6456 13.4944 22.6468C12.8859 22.7388 12.2691 22.7388 11.6606 22.6468Z" fill="#00893D"/>
<path d="M7.37386 27.6097C11.4266 28.2253 14.5976 28.1262 17.732 25.1499C17.7579 25.1254 17.7931 25.1104 17.8306 25.108C17.8682 25.1055 17.9054 25.1157 17.935 25.1365C17.9647 25.1574 17.9847 25.1875 17.9912 25.2209C17.9976 25.2543 17.9901 25.2887 17.97 25.3173C16.5572 27.2394 13.4333 29.7535 7.29537 27.9116C7.25096 27.9022 7.2125 27.8773 7.18846 27.8424C7.16442 27.8074 7.15676 27.7653 7.16717 27.7253C7.17757 27.6852 7.2052 27.6506 7.24396 27.6289C7.28272 27.6072 7.32945 27.6003 7.37386 27.6097Z" fill="#FAC03D"/>
<path d="M1.77391 25.8034C1.74896 25.7602 1.74104 25.7086 1.75181 25.6595C1.76257 25.6103 1.79119 25.5674 1.83165 25.5398C1.87212 25.5122 1.92128 25.5019 1.96884 25.5112C2.01639 25.5205 2.05864 25.5487 2.08672 25.5897C3.48927 27.4807 6.18924 29.759 11.0071 29.5533C19.1276 29.2061 19.2968 21.9947 22.0327 23.2954C24.7044 24.5694 21.1455 31.7034 13.6892 31.9865C7.55846 32.2189 3.71747 29.4732 1.77391 25.8034Z" fill="#00893D"/>
<path d="M12.5761 0C12.8745 0.822117 13.3129 1.58184 13.8706 2.24287L14.0544 2.46155L13.8112 2.4251C12.9928 2.30455 12.1621 2.30455 11.3438 2.4251L11.1005 2.46155L11.3167 2.20081C11.8421 1.56697 12.2606 0.84566 12.5545 0.067286L12.5761 0Z" fill="#00893D"/>
<path d="M15.7948 5.89273V5.83996C15.7992 5.78465 15.7857 5.72939 15.7563 5.68202C15.727 5.63466 15.6832 5.59761 15.6312 5.57614C15.3142 5.43031 15.0453 5.19948 14.8556 4.91016C14.6659 4.62083 14.5629 4.28474 14.5585 3.94046C14.5599 3.66959 14.6232 3.40249 14.7439 3.15904C14.8646 2.91559 15.0396 2.70205 15.2558 2.53429C15.2625 2.52783 15.2669 2.51935 15.2683 2.51018C15.2697 2.501 15.2679 2.49164 15.2634 2.48354C15.2588 2.47543 15.2516 2.46903 15.243 2.46533C15.2343 2.46163 15.2247 2.46083 15.2155 2.46306C14.284 2.73226 13.3219 2.88559 12.3516 2.91947C11.4037 2.88655 10.4635 2.73948 9.55201 2.48153C9.54276 2.47628 9.53178 2.47486 9.52147 2.47758C9.51116 2.4803 9.50237 2.48694 9.49704 2.49604C9.4917 2.50513 9.49026 2.51594 9.49303 2.52609C9.49579 2.53623 9.50254 2.54487 9.51179 2.55012C9.72206 2.71816 9.89177 2.93006 10.0086 3.17051C10.1255 3.41095 10.1866 3.67394 10.1876 3.94046C10.182 4.30084 10.0693 4.65173 9.86344 4.94988C9.65759 5.24803 9.36756 5.48041 9.0291 5.61835C8.97513 5.6393 8.92871 5.67557 8.89576 5.72255C8.86281 5.76953 8.84481 5.8251 8.84407 5.88218C8.83956 6.09888 8.77131 6.30965 8.64756 6.48898C8.52382 6.6683 8.3499 6.80851 8.14685 6.89261H16.5161C16.31 6.81314 16.1319 6.67619 16.0038 6.49857C15.8756 6.32095 15.803 6.11039 15.7948 5.89273Z" fill="#1CAF76"/>
<path d="M21.9565 12.7745C22.9154 11.9939 22.6184 10.7919 22.462 10.3417C22.4557 10.3229 22.4446 10.306 22.4298 10.2927C22.415 10.2794 22.397 10.2703 22.3775 10.2661C22.358 10.2618 22.3378 10.2628 22.3188 10.2687C22.2999 10.2747 22.2828 10.2855 22.2692 10.3001C21.8301 10.6774 21.283 10.9068 20.7058 10.9558C20.2129 11.0215 19.7113 10.9602 19.2488 10.7776C18.7863 10.5949 18.3783 10.2971 18.0637 9.91241L16.6332 8.13791C16.5975 8.09448 16.5526 8.05956 16.5016 8.0357C16.4507 8.01185 16.3951 7.99965 16.3388 8.00001H8.191C8.13473 7.99965 8.0791 8.01185 8.02816 8.0357C7.97722 8.05956 7.93226 8.09448 7.89656 8.13791L6.45565 9.91241C6.14379 10.2992 5.73798 10.5998 5.27687 10.7856C4.81575 10.9714 4.31468 11.0363 3.82136 10.974C3.24414 10.925 2.69708 10.6956 2.25798 10.3183C2.24416 10.3038 2.22685 10.2931 2.2077 10.2872C2.18855 10.2813 2.16821 10.2804 2.14861 10.2846C2.12901 10.2887 2.11081 10.2978 2.09574 10.311C2.08068 10.3242 2.06925 10.3411 2.06256 10.3599C1.90622 10.8101 1.61178 12.0122 2.58368 12.7927L0.0718556 16.6566C0.0278135 16.7251 0.00308285 16.8042 0.00027001 16.8855C-0.00254283 16.9669 0.0166646 17.0475 0.0558706 17.1189C0.0950766 17.1902 0.15283 17.2497 0.22305 17.2911C0.29327 17.3325 0.37336 17.3541 0.454884 17.3539H24.2755C24.3364 17.3541 24.3962 17.3379 24.4486 17.3071C24.5011 17.2763 24.5442 17.2319 24.5735 17.1786C24.6029 17.1254 24.6173 17.0652 24.6153 17.0045C24.6133 16.9438 24.5949 16.8847 24.5622 16.8335L21.9565 12.7745Z" fill="#007431"/>
<path d="M20.5657 20.185H4.09726C3.88674 20.185 3.71607 20.3687 3.71607 20.5954V20.7591C3.71607 20.9858 3.88674 21.1696 4.09726 21.1696H20.5657C20.7762 21.1696 20.9469 20.9858 20.9469 20.7591V20.5954C20.9469 20.3687 20.7762 20.185 20.5657 20.185Z" fill="#F4A023"/>
<path d="M5.6857 20.3161C5.6857 20.3161 5.2403 19.3419 4.16642 19.829C3.09254 20.3161 2.73184 19.8753 2.73184 19.8753C2.73184 19.8753 3.61172 21.9454 5.51355 20.8494L5.6857 20.3161Z" fill="#F4A023"/>
</svg>
