<svg width="30" height="27" viewBox="0 0 30 27" fill="none" xmlns="http://www.w3.org/2000/svg">
<path d="M26.02 4.75977H4.46997V6.32977H26.02V4.75977Z" fill="#57B873"/>
<path d="M26.02 9.45996H4.46997V11.03H26.02V9.45996Z" fill="#57B873"/>
<path d="M26.02 14.1602H4.46997V15.7301H26.02V14.1602Z" fill="#57B873"/>
<path d="M11.6499 11.0198V6.31982H9.8499V11.0198H11.6499Z" fill="#57B873"/>
<path d="M8.06006 14.16V9.45996H6.26006V14.16H8.06006Z" fill="#57B873"/>
<path d="M13.4399 14.16V9.45996H11.6399V14.16H13.4399Z" fill="#57B873"/>
<path d="M18.8301 14.1502V9.4502H17.0301V14.1502H18.8301Z" fill="#57B873"/>
<path d="M24.22 14.16V9.45996H22.42V14.16H24.22Z" fill="#57B873"/>
<path d="M4.46997 17.29V26.69H11.65V20.42H18.83V26.69H26.01V17.29H4.46997Z" fill="#57B873"/>
<path d="M20.6201 11.0301V6.33008H18.8201V11.0301H20.6201Z" fill="#57B873"/>
<path d="M23.8599 0.0600586C18.1494 0.972703 12.3303 0.972703 6.61987 0.0600586C6.61987 0.0600586 2.30988 3.19007 0.879883 1.63007C0.879883 1.63007 2.30987 4.76006 6.61987 3.19006H23.8599C28.1699 4.76006 29.5999 1.63007 29.5999 1.63007C28.1699 3.19007 23.8599 0.0600586 23.8599 0.0600586Z" fill="#57B873"/>
</svg>
