<svg width="83" height="84" viewBox="0 0 83 84" fill="none" xmlns="http://www.w3.org/2000/svg">
<path d="M41.71 83.1401C64.4917 83.1401 82.96 64.6719 82.96 41.8901C82.96 19.1084 64.4917 0.640137 41.71 0.640137C18.9282 0.640137 0.459961 19.1084 0.459961 41.8901C0.459961 64.6719 18.9282 83.1401 41.71 83.1401Z" fill="white"/>
<path d="M40.0001 16.78C41.4637 16.78 42.6501 15.5936 42.6501 14.13C42.6501 12.6665 41.4637 11.48 40.0001 11.48C38.5366 11.48 37.3501 12.6665 37.3501 14.13C37.3501 15.5936 38.5366 16.78 40.0001 16.78Z" fill="#29679C"/>
<path d="M54.73 28.4399H25.27C21.404 28.4399 18.27 31.5739 18.27 35.4399V57.48C18.27 61.346 21.404 64.48 25.27 64.48H54.73C58.596 64.48 61.73 61.346 61.73 57.48V35.4399C61.73 31.5739 58.596 28.4399 54.73 28.4399Z" fill="#29679C"/>
<path d="M36.29 18.8999L27.8101 28.4398" stroke="#286395" stroke-width="3.18" stroke-miterlimit="10" stroke-linecap="round"/>
<path d="M43.71 18.8999L52.1899 28.4398" stroke="#286395" stroke-width="3.18" stroke-miterlimit="10" stroke-linecap="round"/>
<path d="M26.22 40.6299H37.88" stroke="white" stroke-width="3.18" stroke-miterlimit="10" stroke-linecap="round"/>
<path d="M26.22 55.47H45.3" stroke="white" stroke-width="3.18" stroke-miterlimit="10" stroke-linecap="round"/>
<path d="M26.22 48.05H52.72" stroke="white" stroke-width="3.18" stroke-miterlimit="10" stroke-linecap="round"/>
</svg>
