<svg width="83" height="84" viewBox="0 0 83 84" fill="none" xmlns="http://www.w3.org/2000/svg">
<path d="M41.71 83.05C64.4917 83.05 82.96 64.5818 82.96 41.8C82.96 19.0183 64.4917 0.550049 41.71 0.550049C18.9282 0.550049 0.459961 19.0183 0.459961 41.8C0.459961 64.5818 18.9282 83.05 41.71 83.05Z" fill="white"/>
<path d="M23.49 33.4302H21.74C21.1877 33.4302 20.74 33.8779 20.74 34.4302V58.1201C20.74 58.6724 21.1877 59.1201 21.74 59.1201H23.49C24.0423 59.1201 24.49 58.6724 24.49 58.1201V34.4302C24.49 33.8779 24.0423 33.4302 23.49 33.4302Z" fill="#008C59"/>
<path d="M62.02 33.4302H60.27C59.7177 33.4302 59.27 33.8779 59.27 34.4302V58.1201C59.27 58.6724 59.7177 59.1201 60.27 59.1201H62.02C62.5723 59.1201 63.02 58.6724 63.02 58.1201V34.4302C63.02 33.8779 62.5723 33.4302 62.02 33.4302Z" fill="#008C59"/>
<path d="M63.46 60.72H21.37C20.7293 60.72 20.21 61.2394 20.21 61.88V64.38C20.21 65.0207 20.7293 65.54 21.37 65.54H63.46C64.1006 65.54 64.62 65.0207 64.62 64.38V61.88C64.62 61.2394 64.1006 60.72 63.46 60.72Z" fill="#008C59"/>
<path d="M64.85 34.8699L43.46 14.6898C43.03 14.359 42.5026 14.1797 41.96 14.1797C41.4174 14.1797 40.8901 14.359 40.46 14.6898L29.5601 24.9999L19.0501 34.9099C18.2501 35.6699 19.1101 36.6799 20.5601 36.6799H22.36C23.1683 36.7081 23.9586 36.4375 24.58 35.9199L41.21 20.2299C41.4212 20.0644 41.6817 19.9745 41.95 19.9745C42.2183 19.9745 42.4788 20.0644 42.69 20.2299L59.3101 35.9199C59.9355 36.4373 60.7288 36.7077 61.5401 36.6799H63.33C64.79 36.6399 65.65 35.6299 64.85 34.8699Z" fill="#008C59"/>
<path d="M38.09 36.6401H31.4C30.5385 36.6401 29.84 37.3385 29.84 38.2001V44.8901C29.84 45.7517 30.5385 46.4501 31.4 46.4501H38.09C38.9515 46.4501 39.65 45.7517 39.65 44.8901V38.2001C39.65 37.3385 38.9515 36.6401 38.09 36.6401Z" fill="#008C59"/>
<path d="M52.89 36.6401H46.2C45.3384 36.6401 44.64 37.3385 44.64 38.2001V44.8901C44.64 45.7517 45.3384 46.4501 46.2 46.4501H52.89C53.7516 46.4501 54.45 45.7517 54.45 44.8901V38.2001C54.45 37.3385 53.7516 36.6401 52.89 36.6401Z" fill="#008C59"/>
<path d="M38.09 48.4199H31.4C30.5385 48.4199 29.84 49.1183 29.84 49.9799V56.6699C29.84 57.5315 30.5385 58.2299 31.4 58.2299H38.09C38.9515 58.2299 39.65 57.5315 39.65 56.6699V49.9799C39.65 49.1183 38.9515 48.4199 38.09 48.4199Z" fill="#008C59"/>
<path d="M52.89 48.4199H46.2C45.3384 48.4199 44.64 49.1183 44.64 49.9799V56.6699C44.64 57.5315 45.3384 58.2299 46.2 58.2299H52.89C53.7516 58.2299 54.45 57.5315 54.45 56.6699V49.9799C54.45 49.1183 53.7516 48.4199 52.89 48.4199Z" fill="#008C59"/>
</svg>
