<svg width="24" height="28" viewBox="0 0 24 28" fill="none" xmlns="http://www.w3.org/2000/svg">
<path d="M11.9199 14.5398C10.5321 14.5024 9.18626 14.056 8.05115 13.2568C6.91603 12.4575 6.04222 11.3409 5.53918 10.0469C5.03615 8.75299 4.92633 7.33934 5.22351 5.98324C5.52069 4.62714 6.21153 3.38897 7.20959 2.42399C8.20766 1.45901 9.46852 0.810175 10.8339 0.558862C12.1992 0.307549 13.6083 0.464943 14.8845 1.0113C16.1608 1.55766 17.2474 2.46865 18.0079 3.63006C18.7685 4.79146 19.1693 6.15157 19.1599 7.53982C19.1231 9.42478 18.3422 11.2187 16.9877 12.5301C15.6332 13.8415 13.8151 14.5639 11.9299 14.5398M0.839844 27.5398C0.710306 27.5305 0.588536 27.4749 0.496704 27.383C0.404872 27.2912 0.349131 27.1694 0.339844 27.0398C0.339844 23.966 1.56095 21.018 3.7345 18.8445C5.90804 16.6709 8.85607 15.4498 11.9299 15.4498C15.0038 15.4498 17.9517 16.6709 20.1252 18.8445C22.2988 21.018 23.5199 23.966 23.5199 27.0398C23.5106 27.1694 23.455 27.2912 23.3632 27.383C23.2713 27.4749 23.1494 27.5305 23.0199 27.5398" fill="#55B7AE"/>
</svg>
