<svg width="39" height="43" viewBox="0 0 39 43" fill="none" xmlns="http://www.w3.org/2000/svg">
<path d="M3.69165 2.96222L35.3156 0.939697" stroke="#AE552E" stroke-width="0.95" stroke-miterlimit="10"/>
<path d="M3.65259 5.2887H35.3423" stroke="#AE552E" stroke-width="0.95" stroke-miterlimit="10"/>
<path d="M26.5847 38.23C26.5847 40.6226 23.3763 42.5658 19.4183 42.5658C15.4604 42.5658 12.2651 40.6226 12.2651 38.23H26.5847Z" fill="#C25E32"/>
<path d="M38.4062 19.684C38.4062 30.7746 29.9118 39.7502 19.4187 39.7502C8.92559 39.7502 0.444336 30.7746 0.444336 19.684H38.4062Z" fill="#C25E32"/>
<path d="M2.9428 19.684C2.86324 18.3712 3.30176 17.0797 4.16335 16.0898C5.02493 15.1 6.24007 14.4915 7.54504 14.3965C7.54504 14.3965 8.53124 9.24115 13.3044 10.4308C13.3044 10.4308 18.7219 3.1737 25.2045 10.4308C25.8649 10.2981 26.5452 10.3017 27.2041 10.4413C27.8631 10.581 28.487 10.8537 29.0379 11.2431C29.5888 11.6326 30.0553 12.1305 30.409 12.7067C30.7626 13.2829 30.9961 13.9252 31.0953 14.5948C32.3633 14.7596 33.5354 15.3605 34.4126 16.2954C35.2899 17.2303 35.8183 18.4416 35.908 19.7237L2.9428 19.684Z" fill="#FCDFC5"/>
<path d="M4.25757 24.6542C4.25757 24.6542 4.79667 28.7521 7.11093 30.5234" stroke="#F9DDC3" stroke-width="0.58" stroke-miterlimit="10" stroke-linecap="round"/>
<path d="M10.28 33.2729C10.28 33.2729 14.5141 38.23 22.2721 36.1018" stroke="#F9DDC3" stroke-width="0.58" stroke-miterlimit="10" stroke-linecap="round"/>
<path d="M16.5912 13.643C17.0484 13.643 17.4191 13.2701 17.4191 12.8102C17.4191 12.3503 17.0484 11.9774 16.5912 11.9774C16.1339 11.9774 15.7632 12.3503 15.7632 12.8102C15.7632 13.2701 16.1339 13.643 16.5912 13.643Z" fill="#C25E32"/>
<path d="M12.857 18.2431C13.3143 18.2431 13.685 17.8702 13.685 17.4103C13.685 16.9504 13.3143 16.5775 12.857 16.5775C12.3998 16.5775 12.0291 16.9504 12.0291 17.4103C12.0291 17.8702 12.3998 18.2431 12.857 18.2431Z" fill="#C25E32"/>
<path d="M24.4942 15.7315C24.9514 15.7315 25.3221 15.3586 25.3221 14.8987C25.3221 14.4388 24.9514 14.0659 24.4942 14.0659C24.0369 14.0659 23.6663 14.4388 23.6663 14.8987C23.6663 15.3586 24.0369 15.7315 24.4942 15.7315Z" fill="#C25E32"/>
</svg>
