<svg width="27" height="29" viewBox="0 0 27 29" fill="none" xmlns="http://www.w3.org/2000/svg">
<path d="M2.8999 1.90004L24.1699 0.540039" stroke="#AE552E" stroke-width="0.84" stroke-miterlimit="10"/>
<path d="M2.87988 3.4502H24.1998" stroke="#AE552E" stroke-width="0.84" stroke-miterlimit="10"/>
<path d="M18.3 25.5C18.3 27.1 16.1499 28.4 13.4899 28.4C10.8299 28.4 8.66992 27.1 8.66992 25.5H18.3Z" fill="#C25E32"/>
<path d="M26.25 13.0898C26.25 20.4998 20.54 26.5099 13.49 26.5099C6.43999 26.5099 0.719971 20.5098 0.719971 13.0898H26.25Z" fill="#C25E32"/>
<path d="M2.40003 13.0899C2.34218 12.2091 2.63429 11.3411 3.2129 10.6744C3.7915 10.0078 4.60981 9.59653 5.49 9.52991C5.49 9.52991 6.16 6.07991 9.37 6.86991C9.37 6.86991 13.01 2.01991 17.37 6.86991C17.8165 6.77483 18.2777 6.77229 18.7252 6.86243C19.1727 6.95257 19.597 7.13349 19.9718 7.394C20.3467 7.65452 20.6641 7.98911 20.9045 8.37711C21.145 8.76512 21.3035 9.1983 21.37 9.64991C22.2231 9.76132 23.0113 10.165 23.6002 10.7922C24.1892 11.4195 24.5425 12.2315 24.6 13.0899H2.40003Z" fill="#FCDFC5"/>
<path d="M3.29004 16.4102C3.29004 16.4102 3.65008 19.1501 5.21008 20.3401" stroke="#F9DDC3" stroke-width="0.52" stroke-miterlimit="10" stroke-linecap="round"/>
<path d="M7.33008 22.1699C8.36927 23.2031 9.67469 23.9278 11.1012 24.2632C12.5277 24.5986 14.0194 24.5317 15.4101 24.0699" stroke="#F9DDC3" stroke-width="0.52" stroke-miterlimit="10" stroke-linecap="round"/>
<path d="M11.58 9.05019C11.8893 9.05019 12.14 8.79947 12.14 8.49019C12.14 8.18091 11.8893 7.93018 11.58 7.93018C11.2707 7.93018 11.02 8.18091 11.02 8.49019C11.02 8.79947 11.2707 9.05019 11.58 9.05019Z" fill="#C25E32"/>
<path d="M9.07001 12.12C9.37929 12.12 9.63 11.8693 9.63 11.56C9.63 11.2507 9.37929 11 9.07001 11C8.76073 11 8.51001 11.2507 8.51001 11.56C8.51001 11.8693 8.76073 12.12 9.07001 12.12Z" fill="#C25E32"/>
<path d="M16.8901 10.4501C17.1994 10.4501 17.4501 10.1994 17.4501 9.89008C17.4501 9.5808 17.1994 9.33008 16.8901 9.33008C16.5809 9.33008 16.3301 9.5808 16.3301 9.89008C16.3301 10.1994 16.5809 10.4501 16.8901 10.4501Z" fill="#C25E32"/>
</svg>
