<svg width="32" height="38" viewBox="0 0 32 38" fill="none" xmlns="http://www.w3.org/2000/svg">
<path d="M15.9999 19.9999C14.1132 19.9488 12.2833 19.3426 10.7391 18.2572C9.195 17.1717 8.00513 15.6552 7.31824 13.8972C6.63134 12.1391 6.47794 10.2175 6.8772 8.37275C7.27646 6.52798 8.21063 4.84192 9.56299 3.52522C10.9153 2.20852 12.6259 1.31963 14.4807 0.969798C16.3354 0.619966 18.2522 0.824678 19.9913 1.5583C21.7303 2.29192 23.2146 3.52184 24.2584 5.09443C25.3022 6.66702 25.8592 8.5125 25.8599 10.4C25.843 11.6778 25.5745 12.9397 25.0698 14.1137C24.5651 15.2877 23.834 16.3508 22.9184 17.2423C22.0028 18.1337 20.9205 18.8361 19.7335 19.3093C18.5464 19.7824 17.2777 20.0171 15.9999 19.9999ZM0.889954 37.7199C0.714893 37.7042 0.550919 37.6275 0.426636 37.5032C0.302352 37.379 0.225663 37.215 0.209961 37.04C0.355564 32.9495 2.08285 29.0751 5.02814 26.2327C7.97343 23.3904 11.9068 21.802 15.9999 21.802C20.093 21.802 24.0265 23.3904 26.9717 26.2327C29.917 29.0751 31.6443 32.9495 31.7899 37.04C31.7742 37.215 31.6975 37.379 31.5732 37.5032C31.449 37.6275 31.285 37.7042 31.1099 37.7199" fill="#55B7AE"/>
</svg>
