<svg width="45" height="45" viewBox="0 0 45 45" fill="none" xmlns="http://www.w3.org/2000/svg">
<path d="M22.5001 44C34.3742 44 44 34.3741 44 22.5C44 10.6259 34.3742 1 22.5001 1C10.626 1 1 10.6259 1 22.5C1 34.3741 10.626 44 22.5001 44Z" fill="#F4A023"/>
<path d="M5.44828 22.5H30.6552M26.2069 12.8621L38.069 22.5L26.2069 32.1379M44 22.5C44 34.3741 34.3742 44 22.5001 44C10.626 44 1 34.3741 1 22.5C1 10.6259 10.626 1 22.5001 1C34.3742 1 44 10.6259 44 22.5Z" stroke="white" stroke-width="2" stroke-miterlimit="10"/>
</svg>
