<svg width="317" height="145" viewBox="0 0 317 145" fill="none" xmlns="http://www.w3.org/2000/svg">
<path d="M6.68997 59.6899H309.03C310.804 59.6899 312.506 60.3948 313.761 61.6494C315.015 62.904 315.72 64.6056 315.72 66.3799V97.1999C315.72 109.747 310.736 121.781 301.863 130.653C292.991 139.526 280.957 144.51 268.41 144.51H6.68997C4.91567 144.51 3.21406 143.805 1.95944 142.55C0.704824 141.296 0 139.594 0 137.82V66.3699C0.00264958 64.5974 0.708651 62.8983 1.96298 61.6459C3.21731 60.3934 4.91741 59.6899 6.68997 59.6899Z" fill="#1CAF76"/>
<path d="M64.18 0L91.49 34.56L118.81 69.11H64.18H9.56L36.87 34.56L64.18 0Z" fill="#1CAF76"/>
<path d="M63.83 17.28L84.25 42.41L104.67 67.54H63.83H22.99L43.41 42.41L63.83 17.28Z" fill="white"/>
<path d="M102.7 58.12H24.96C20.4036 58.12 16.71 61.8136 16.71 66.37V128.4C16.71 132.956 20.4036 136.65 24.96 136.65H102.7C107.256 136.65 110.95 132.956 110.95 128.4V66.37C110.95 61.8136 107.256 58.12 102.7 58.12Z" fill="white"/>
<path d="M64.14 39.96C66.9345 39.96 69.2 37.6945 69.2 34.9C69.2 32.1054 66.9345 29.84 64.14 29.84C61.3454 29.84 59.08 32.1054 59.08 34.9C59.08 37.6945 61.3454 39.96 64.14 39.96Z" fill="#29679C"/>
<path d="M98.62 62.22H29.66C25.794 62.22 22.66 65.354 22.66 69.22V124.01C22.66 127.876 25.794 131.01 29.66 131.01H98.62C102.486 131.01 105.62 127.876 105.62 124.01V69.22C105.62 65.354 102.486 62.22 98.62 62.22Z" fill="#29679C"/>
<path d="M57.06 44.01L40.87 62.22" stroke="#286395" stroke-width="6.07" stroke-miterlimit="10" stroke-linecap="round"/>
<path d="M71.22 44.01L87.41 62.22" stroke="#286395" stroke-width="6.07" stroke-miterlimit="10" stroke-linecap="round"/>
<path d="M37.84 85.48H60.09" stroke="white" stroke-width="6.07" stroke-miterlimit="10" stroke-linecap="round"/>
<path d="M37.84 113.81H74.2599" stroke="white" stroke-width="6.07" stroke-miterlimit="10" stroke-linecap="round"/>
<path d="M37.84 99.65H88.42" stroke="white" stroke-width="6.07" stroke-miterlimit="10" stroke-linecap="round"/>
</svg>
