<svg width="112" height="113" viewBox="0 0 112 113" fill="none" xmlns="http://www.w3.org/2000/svg">
<path d="M56.16 110.63C86.1049 110.63 110.38 86.3549 110.38 56.41C110.38 26.4651 86.1049 2.19 56.16 2.19C26.2152 2.19 1.93994 26.4651 1.93994 56.41C1.93994 86.3549 26.2152 110.63 56.16 110.63Z" stroke="#858585" stroke-width="2.94" stroke-miterlimit="10"/>
<path d="M54.9102 23.4C56.8321 23.4 58.3901 21.842 58.3901 19.92C58.3901 17.9981 56.8321 16.44 54.9102 16.44C52.9882 16.44 51.4302 17.9981 51.4302 19.92C51.4302 21.842 52.9882 23.4 54.9102 23.4Z" fill="#29679C"/>
<path d="M76.4701 38.73H33.3501C29.4841 38.73 26.3501 41.864 26.3501 45.73V79.1C26.3501 82.966 29.4841 86.1 33.3501 86.1H76.4701C80.3361 86.1 83.4701 82.966 83.4701 79.1V45.73C83.4701 41.864 80.3361 38.73 76.4701 38.73Z" fill="#29679C"/>
<path d="M50.0402 26.19L38.8901 38.73" stroke="#286395" stroke-width="4.18" stroke-miterlimit="10" stroke-linecap="round"/>
<path d="M59.79 26.19L70.9301 38.73" stroke="#286395" stroke-width="4.18" stroke-miterlimit="10" stroke-linecap="round"/>
<path d="M35.8 54.75H51.13" stroke="white" stroke-width="4.18" stroke-miterlimit="10" stroke-linecap="round"/>
<path d="M36.8 74.26H61.88" stroke="white" stroke-width="4.18" stroke-miterlimit="10" stroke-linecap="round"/>
<path d="M36.8 64.5H71.63" stroke="white" stroke-width="4.18" stroke-miterlimit="10" stroke-linecap="round"/>
</svg>
