<svg width="83" height="84" viewBox="0 0 83 84" fill="none" xmlns="http://www.w3.org/2000/svg">
<path d="M41.71 83.35C64.4917 83.35 82.96 64.8817 82.96 42.1C82.96 19.3182 64.4917 0.849976 41.71 0.849976C18.9282 0.849976 0.459961 19.3182 0.459961 42.1C0.459961 64.8817 18.9282 83.35 41.71 83.35Z" fill="white"/>
<path d="M29.6101 51.6C39.2696 51.6 47.1001 44.553 47.1001 35.86C47.1001 27.167 39.2696 20.12 29.6101 20.12C19.9506 20.12 12.1201 27.167 12.1201 35.86C12.1201 44.553 19.9506 51.6 29.6101 51.6Z" fill="#D01D42"/>
<path d="M31.14 67.1499C30.9716 67.4121 30.7401 67.6278 30.4667 67.7771C30.1932 67.9265 29.8865 68.0048 29.575 68.0048C29.2634 68.0048 28.9568 67.9265 28.6833 67.7771C28.4099 67.6278 28.1784 67.4121 28.01 67.1499L21.9399 56.6499L14.3 43.4399H44.85L37.21 56.6499L31.14 67.1499Z" fill="#D01D42"/>
<path d="M29.6101 46.96C34.8182 46.96 39.0402 42.738 39.0402 37.53C39.0402 32.3219 34.8182 28.1 29.6101 28.1C24.4021 28.1 20.1802 32.3219 20.1802 37.53C20.1802 42.738 24.4021 46.96 29.6101 46.96Z" fill="white"/>
<path d="M61.9 35.05C67.5002 35.05 72.04 30.9624 72.04 25.92C72.04 20.8777 67.5002 16.79 61.9 16.79C56.2999 16.79 51.76 20.8777 51.76 25.92C51.76 30.9624 56.2999 35.05 61.9 35.05Z" fill="#B32732"/>
<path d="M62.79 44.0599C62.6936 44.2128 62.56 44.3387 62.4017 44.426C62.2435 44.5133 62.0657 44.5591 61.885 44.5591C61.7043 44.5591 61.5265 44.5133 61.3683 44.426C61.21 44.3387 61.0764 44.2128 60.98 44.0599L57.46 37.9699L53.03 30.3199H70.74L66.3199 37.9699L62.79 44.0599Z" fill="#B32732"/>
<path d="M61.9001 32.36C64.9211 32.36 67.3701 29.911 67.3701 26.89C67.3701 23.869 64.9211 21.42 61.9001 21.42C58.8791 21.42 56.4302 23.869 56.4302 26.89C56.4302 29.911 58.8791 32.36 61.9001 32.36Z" fill="white"/>
<path d="M29.9399 69.55C30.4844 69.8248 31.0456 70.0652 31.62 70.2701" stroke="#AA2831" stroke-width="1.22" stroke-miterlimit="10" stroke-linecap="round"/>
<path d="M36.1699 71.21C40.5399 71.9 46.4498 71.02 48.9698 62.51C51.4898 54 55.8299 50.08 58.8599 48.27" stroke="#AA2831" stroke-width="1.22" stroke-miterlimit="10" stroke-linecap="round" stroke-dasharray="3.68 3.68"/>
<path d="M60.5 47.43C61.0559 47.177 61.6354 46.9794 62.23 46.84" stroke="#AA2831" stroke-width="1.22" stroke-miterlimit="10" stroke-linecap="round"/>
<path d="M29.8901 73C29.8901 73 47.0001 81.56 51.7501 66C56.7501 49.55 66.5502 48.53 66.5502 48.53" stroke="#C42040" stroke-width="1.22" stroke-miterlimit="10" stroke-linecap="round"/>
</svg>
