<svg width="84" height="84" viewBox="0 0 84 84" fill="none" xmlns="http://www.w3.org/2000/svg">
<path d="M41.71 83.1401C64.4917 83.1401 82.96 64.6719 82.96 41.8901C82.96 19.1084 64.4917 0.640137 41.71 0.640137C18.9282 0.640137 0.459961 19.1084 0.459961 41.8901C0.459961 64.6719 18.9282 83.1401 41.71 83.1401Z" fill="white"/>
<path d="M41.0001 16.78C42.4637 16.78 43.6501 15.5935 43.6501 14.13C43.6501 12.6664 42.4637 11.48 41.0001 11.48C39.5366 11.48 38.3501 12.6664 38.3501 14.13C38.3501 15.5935 39.5366 16.78 41.0001 16.78Z" fill="#29679C"/>
<path d="M54.73 28.4399H25.27C21.404 28.4399 18.27 31.5739 18.27 35.4399V57.4799C18.27 61.3459 21.404 64.4799 25.27 64.4799H54.73C58.596 64.4799 61.73 61.3459 61.73 57.4799V35.4399C61.73 31.5739 58.596 28.4399 54.73 28.4399Z" fill="#29679C"/>
<path d="M37.29 18.8999L28.8101 28.4399" stroke="#286395" stroke-width="3.18" stroke-miterlimit="10" stroke-linecap="round"/>
<path d="M44.71 18.8999L53.1899 28.4399" stroke="#286395" stroke-width="3.18" stroke-miterlimit="10" stroke-linecap="round"/>
<path d="M27.2197 40.6299H38.8798" stroke="white" stroke-width="3.18" stroke-miterlimit="10" stroke-linecap="round"/>
<path d="M27.2197 55.47H46.2998" stroke="white" stroke-width="3.18" stroke-miterlimit="10" stroke-linecap="round"/>
<path d="M27.2197 48.05H53.7197" stroke="white" stroke-width="3.18" stroke-miterlimit="10" stroke-linecap="round"/>
</svg>
