<svg width="112" height="112" viewBox="0 0 112 112" fill="none" xmlns="http://www.w3.org/2000/svg">
<path d="M55.9598 109.76C85.7004 109.76 109.81 85.6818 109.81 55.9799C109.81 26.2781 85.7004 2.19995 55.9598 2.19995C26.2193 2.19995 2.10986 26.2781 2.10986 55.9799C2.10986 85.6818 26.2193 109.76 55.9598 109.76Z" stroke="#858585" stroke-width="2.94" stroke-miterlimit="10"/>
<path d="M40.1499 68.29C52.7586 68.29 62.9799 59.0939 62.9799 47.75C62.9799 36.406 52.7586 27.21 40.1499 27.21C27.5412 27.21 17.3198 36.406 17.3198 47.75C17.3198 59.0939 27.5412 68.29 40.1499 68.29Z" fill="#D01D42"/>
<path d="M42.1501 88.5999C41.9314 88.9427 41.6299 89.2248 41.2733 89.4202C40.9168 89.6156 40.5167 89.7181 40.1101 89.7181C39.7035 89.7181 39.3034 89.6156 38.9469 89.4202C38.5904 89.2248 38.2888 88.9427 38.0701 88.5999L30.1401 74.8899L20.1401 57.6499H60.0302L50.0302 74.8899L42.1501 88.5999Z" fill="#D01D42"/>
<path d="M40.1499 62.2499C46.9485 62.2499 52.4598 56.7385 52.4598 49.9399C52.4598 43.1413 46.9485 37.6299 40.1499 37.6299C33.3513 37.6299 27.8398 43.1413 27.8398 49.9399C27.8398 56.7385 33.3513 62.2499 40.1499 62.2499Z" fill="white"/>
<path d="M82.3099 46.6801C89.6222 46.6801 95.5499 41.3478 95.5499 34.7701C95.5499 28.1924 89.6222 22.8601 82.3099 22.8601C74.9977 22.8601 69.0698 28.1924 69.0698 34.7701C69.0698 41.3478 74.9977 46.6801 82.3099 46.6801Z" fill="#B32732"/>
<path d="M83.4697 58.46C83.3432 58.6582 83.1688 58.8213 82.9625 58.9343C82.7563 59.0473 82.525 59.1066 82.2898 59.1066C82.0546 59.1066 81.8232 59.0473 81.6169 58.9343C81.4107 58.8213 81.2363 58.6582 81.1097 58.46L76.5098 50.46L70.7197 40.46H93.8497L88.0697 50.46L83.4697 58.46Z" fill="#B32732"/>
<path d="M82.3099 43.1799C86.2533 43.1799 89.4498 39.9832 89.4498 36.0399C89.4498 32.0966 86.2533 28.8999 82.3099 28.8999C78.3666 28.8999 75.1699 32.0966 75.1699 36.0399C75.1699 39.9832 78.3666 43.1799 82.3099 43.1799Z" fill="white"/>
<path d="M41.8999 91.73C42.6101 92.0876 43.3414 92.4015 44.0898 92.67" stroke="#AA2831" stroke-width="1.59" stroke-miterlimit="10" stroke-linecap="round"/>
<path d="M48.7197 93.89C54.4297 94.79 62.1497 93.6499 65.4397 82.5399C68.7297 71.4299 74.4397 66.31 78.3397 63.96" stroke="#AA2831" stroke-width="1.59" stroke-miterlimit="10" stroke-linecap="round" stroke-dasharray="4.8 4.8"/>
<path d="M80.48 62.8601C81.2044 62.5252 81.9618 62.2672 82.74 62.0901" stroke="#AA2831" stroke-width="1.59" stroke-miterlimit="10" stroke-linecap="round"/>
<path d="M40.5303 96.2101C40.5303 96.2101 62.8603 107.38 69.0603 87.1201C75.6503 65.6501 88.3702 64.3201 88.3702 64.3201" stroke="#C42040" stroke-width="1.59" stroke-miterlimit="10" stroke-linecap="round"/>
</svg>
