<svg width="83" height="84" viewBox="0 0 83 84" fill="none" xmlns="http://www.w3.org/2000/svg">
<path d="M41.71 83.05C64.4917 83.05 82.96 64.5817 82.96 41.8C82.96 19.0182 64.4917 0.549988 41.71 0.549988C18.9282 0.549988 0.459961 19.0182 0.459961 41.8C0.459961 64.5817 18.9282 83.05 41.71 83.05Z" fill="white"/>
<path d="M23.49 33.43H21.74C21.1877 33.43 20.74 33.8777 20.74 34.43V58.12C20.74 58.6723 21.1877 59.12 21.74 59.12H23.49C24.0423 59.12 24.49 58.6723 24.49 58.12V34.43C24.49 33.8777 24.0423 33.43 23.49 33.43Z" fill="#008C59"/>
<path d="M62.02 33.43H60.27C59.7177 33.43 59.27 33.8777 59.27 34.43V58.12C59.27 58.6723 59.7177 59.12 60.27 59.12H62.02C62.5723 59.12 63.02 58.6723 63.02 58.12V34.43C63.02 33.8777 62.5723 33.43 62.02 33.43Z" fill="#008C59"/>
<path d="M63.46 60.72H21.37C20.7293 60.72 20.21 61.2393 20.21 61.88V64.38C20.21 65.0206 20.7293 65.54 21.37 65.54H63.46C64.1006 65.54 64.62 65.0206 64.62 64.38V61.88C64.62 61.2393 64.1006 60.72 63.46 60.72Z" fill="#008C59"/>
<path d="M64.85 34.87L54.34 25L43.46 14.73C43.03 14.3991 42.5026 14.2198 41.96 14.2198C41.4174 14.2198 40.8901 14.3991 40.46 14.73L19.0501 34.91C18.2501 35.67 19.1101 36.68 20.5601 36.68H22.36C23.1683 36.7081 23.9586 36.4376 24.58 35.92L41.21 20.23C41.4212 20.0646 41.6817 19.9747 41.95 19.9747C42.2183 19.9747 42.4788 20.0646 42.69 20.23L59.3101 35.92C59.9355 36.4374 60.7288 36.7078 61.5401 36.68H63.33C64.79 36.64 65.65 35.63 64.85 34.87Z" fill="#008C59"/>
<path d="M38.09 36.64H31.4C30.5385 36.64 29.84 37.3384 29.84 38.2V44.89C29.84 45.7516 30.5385 46.45 31.4 46.45H38.09C38.9515 46.45 39.65 45.7516 39.65 44.89V38.2C39.65 37.3384 38.9515 36.64 38.09 36.64Z" fill="#008C59"/>
<path d="M52.89 36.64H46.2C45.3384 36.64 44.64 37.3384 44.64 38.2V44.89C44.64 45.7516 45.3384 46.45 46.2 46.45H52.89C53.7516 46.45 54.45 45.7516 54.45 44.89V38.2C54.45 37.3384 53.7516 36.64 52.89 36.64Z" fill="#008C59"/>
<path d="M38.09 48.42H31.4C30.5385 48.42 29.84 49.1184 29.84 49.98V56.67C29.84 57.5316 30.5385 58.23 31.4 58.23H38.09C38.9515 58.23 39.65 57.5316 39.65 56.67V49.98C39.65 49.1184 38.9515 48.42 38.09 48.42Z" fill="#008C59"/>
<path d="M52.89 48.42H46.2C45.3384 48.42 44.64 49.1184 44.64 49.98V56.67C44.64 57.5316 45.3384 58.23 46.2 58.23H52.89C53.7516 58.23 54.45 57.5316 54.45 56.67V49.98C54.45 49.1184 53.7516 48.42 52.89 48.42Z" fill="#008C59"/>
</svg>
