<svg width="102" height="102" viewBox="0 0 102 102" fill="none" xmlns="http://www.w3.org/2000/svg">
<path d="M51.0002 98C76.9576 98 98 76.9574 98 51.0001C98 25.0427 76.9576 4 51.0002 4C25.0429 4 4 25.0427 4 51.0001C4 76.9574 25.0429 98 51.0002 98Z" fill="#F4A023"/>
<path d="M75.4749 26.4749L25.4749 76.4749M26.5251 25.4749L76.5251 75.4749M98 51.0001C98 76.9574 76.9576 98 51.0002 98C25.0429 98 4 76.9574 4 51.0001C4 25.0427 25.0429 4 51.0002 4C76.9576 4 98 25.0427 98 51.0001Z" stroke="white" stroke-width="8" stroke-miterlimit="10"/>
</svg>
