<svg width="83" height="84" viewBox="0 0 83 84" fill="none" xmlns="http://www.w3.org/2000/svg">
<path d="M41.71 83.14C64.4917 83.14 82.96 64.6718 82.96 41.89C82.96 19.1083 64.4917 0.640015 41.71 0.640015C18.9282 0.640015 0.459961 19.1083 0.459961 41.89C0.459961 64.6718 18.9282 83.14 41.71 83.14Z" fill="white"/>
<path d="M40.0001 16.78C41.4637 16.78 42.6501 15.5935 42.6501 14.13C42.6501 12.6664 41.4637 11.48 40.0001 11.48C38.5366 11.48 37.3501 12.6664 37.3501 14.13C37.3501 15.5935 38.5366 16.78 40.0001 16.78Z" fill="#29679C"/>
<path d="M54.73 28.4399H25.27C21.404 28.4399 18.27 31.5739 18.27 35.4399V57.4799C18.27 61.3459 21.404 64.4799 25.27 64.4799H54.73C58.596 64.4799 61.73 61.3459 61.73 57.4799V35.4399C61.73 31.5739 58.596 28.4399 54.73 28.4399Z" fill="#29679C"/>
<path d="M36.29 18.9L27.8101 28.44" stroke="#286395" stroke-width="3.18" stroke-miterlimit="10" stroke-linecap="round"/>
<path d="M42.71 18.9L51.1899 28.44" stroke="#286395" stroke-width="3.18" stroke-miterlimit="10" stroke-linecap="round"/>
<path d="M26.2197 40.63H37.8798" stroke="white" stroke-width="3.18" stroke-miterlimit="10" stroke-linecap="round"/>
<path d="M26.2197 55.47H45.2998" stroke="white" stroke-width="3.18" stroke-miterlimit="10" stroke-linecap="round"/>
<path d="M26.2197 48.05H52.7197" stroke="white" stroke-width="3.18" stroke-miterlimit="10" stroke-linecap="round"/>
</svg>
