<svg width="111" height="112" viewBox="0 0 111 112" fill="none" xmlns="http://www.w3.org/2000/svg">
<path d="M55.66 109.7C85.4006 109.7 109.51 85.5905 109.51 55.85C109.51 26.1095 85.4006 2 55.66 2C25.9195 2 1.81006 26.1095 1.81006 55.85C1.81006 85.5905 25.9195 109.7 55.66 109.7Z" stroke="#858585" stroke-width="2.94" stroke-miterlimit="10"/>
<path d="M32.1703 44.93H29.2803C28.728 44.93 28.2803 45.3777 28.2803 45.93V77.46C28.2803 78.0123 28.728 78.46 29.2803 78.46H32.1703C32.7226 78.46 33.1703 78.0123 33.1703 77.46V45.93C33.1703 45.3777 32.7226 44.93 32.1703 44.93Z" fill="#008C59"/>
<path d="M81.4701 44.93H78.5801C78.0278 44.93 77.5801 45.3777 77.5801 45.93V77.46C77.5801 78.0123 78.0278 78.46 78.5801 78.46H81.4701C82.0224 78.46 82.4701 78.0123 82.4701 77.46V45.93C82.4701 45.3777 82.0224 44.93 81.4701 44.93Z" fill="#008C59"/>
<path d="M84.4001 80.56H28.7401C28.0995 80.56 27.5801 81.0794 27.5801 81.72V85.69C27.5801 86.3307 28.0995 86.85 28.7401 86.85H84.4001C85.0408 86.85 85.5602 86.3307 85.5602 85.69V81.72C85.5602 81.0794 85.0408 80.56 84.4001 80.56Z" fill="#008C59"/>
<path d="M85.8602 46.8L72.1402 33.87L57.9402 20.47C57.379 20.0271 56.685 19.7863 55.9702 19.7863C55.2553 19.7863 54.5614 20.0271 54.0002 20.47L39.7903 33.87L26.0802 46.8C25.0802 47.8 26.1602 49.12 28.0802 49.12H30.4303C31.487 49.1545 32.5193 48.7985 33.3302 48.12L40.3302 41.47L55.0002 27.65C55.2745 27.4317 55.6147 27.3129 55.9652 27.3129C56.3157 27.3129 56.656 27.4317 56.9303 27.65L71.5802 41.47L78.6402 48.12C79.4501 48.8002 80.4832 49.1564 81.5402 49.12H83.8802C85.7802 49.12 86.9102 47.8 85.8602 46.8Z" fill="#008C59"/>
<path d="M51.4102 49.12H41.7201C40.8585 49.12 40.1602 49.8184 40.1602 50.68V60.37C40.1602 61.2316 40.8585 61.93 41.7201 61.93H51.4102C52.2717 61.93 52.9701 61.2316 52.9701 60.37V50.68C52.9701 49.8184 52.2717 49.12 51.4102 49.12Z" fill="#008C59"/>
<path d="M70.73 49.12H61.04C60.1785 49.12 59.48 49.8184 59.48 50.68V60.37C59.48 61.2316 60.1785 61.93 61.04 61.93H70.73C71.5915 61.93 72.29 61.2316 72.29 60.37V50.68C72.29 49.8184 71.5915 49.12 70.73 49.12Z" fill="#008C59"/>
<path d="M51.4102 64.49H41.7201C40.8585 64.49 40.1602 65.1884 40.1602 66.05V75.74C40.1602 76.6016 40.8585 77.3 41.7201 77.3H51.4102C52.2717 77.3 52.9701 76.6016 52.9701 75.74V66.05C52.9701 65.1884 52.2717 64.49 51.4102 64.49Z" fill="#008C59"/>
<path d="M70.73 64.49H61.04C60.1785 64.49 59.48 65.1884 59.48 66.05V75.74C59.48 76.6016 60.1785 77.3 61.04 77.3H70.73C71.5915 77.3 72.29 76.6016 72.29 75.74V66.05C72.29 65.1884 71.5915 64.49 70.73 64.49Z" fill="#008C59"/>
</svg>
