<svg width="83" height="84" viewBox="0 0 83 84" fill="none" xmlns="http://www.w3.org/2000/svg">
<path d="M41.71 83.3501C64.4917 83.3501 82.96 64.8819 82.96 42.1001C82.96 19.3184 64.4917 0.850098 41.71 0.850098C18.9282 0.850098 0.459961 19.3184 0.459961 42.1001C0.459961 64.8819 18.9282 83.3501 41.71 83.3501Z" fill="white"/>
<path d="M29.6101 51.6001C39.2696 51.6001 47.1001 44.5531 47.1001 35.8601C47.1001 27.1672 39.2696 20.1201 29.6101 20.1201C19.9506 20.1201 12.1201 27.1672 12.1201 35.8601C12.1201 44.5531 19.9506 51.6001 29.6101 51.6001Z" fill="#D01D42"/>
<path d="M31.1398 67.1499C30.9714 67.4121 30.7399 67.6278 30.4664 67.7771C30.193 67.9265 29.8863 68.0048 29.5747 68.0048C29.2631 68.0048 28.9566 67.9265 28.6831 67.7771C28.4097 67.6278 28.1781 67.4121 28.0098 67.1499L21.9397 56.6499L14.2998 43.4399H44.8497L37.2097 56.6499L31.1398 67.1499Z" fill="#D01D42"/>
<path d="M29.6101 46.9601C34.8182 46.9601 39.0402 42.7381 39.0402 37.5301C39.0402 32.3221 34.8182 28.1001 29.6101 28.1001C24.4021 28.1001 20.1802 32.3221 20.1802 37.5301C20.1802 42.7381 24.4021 46.9601 29.6101 46.9601Z" fill="white"/>
<path d="M61.8998 35.05C67.4999 35.05 72.0398 30.9624 72.0398 25.92C72.0398 20.8777 67.4999 16.79 61.8998 16.79C56.2996 16.79 51.7598 20.8777 51.7598 25.92C51.7598 30.9624 56.2996 35.05 61.8998 35.05Z" fill="#B32732"/>
<path d="M61.7903 44.0601C61.6939 44.2129 61.5602 44.3389 61.402 44.4262C61.2437 44.5134 61.066 44.5592 60.8853 44.5592C60.7045 44.5592 60.5268 44.5134 60.3685 44.4262C60.2103 44.3389 60.0766 44.2129 59.9802 44.0601L56.4602 37.9701L52.0303 30.3201H69.7402L65.3202 37.9701L61.7903 44.0601Z" fill="#B32732"/>
<path d="M61.9001 32.3599C64.9211 32.3599 67.3701 29.9109 67.3701 26.8899C67.3701 23.8689 64.9211 21.4199 61.9001 21.4199C58.8791 21.4199 56.4302 23.8689 56.4302 26.8899C56.4302 29.9109 58.8791 32.3599 61.9001 32.3599Z" fill="white"/>
<path d="M36.1699 71.21C40.5399 71.9 46.4498 71.02 48.9698 62.51C51.4898 54 55.8299 50.08 58.8599 48.27" stroke="#AA2831" stroke-width="1.22" stroke-miterlimit="10" stroke-linecap="round" stroke-dasharray="3.68 3.68"/>
<path d="M60.5 47.4301C61.0559 47.1771 61.6354 46.9795 62.23 46.8401" stroke="#AA2831" stroke-width="1.22" stroke-miterlimit="10" stroke-linecap="round"/>
<path d="M29.8901 73C29.8901 73 47.0001 81.56 51.7501 66C56.7501 49.55 66.5502 48.53 66.5502 48.53" stroke="#C42040" stroke-width="1.22" stroke-miterlimit="10" stroke-linecap="round"/>
</svg>
